<svg xmlns:xlink="http://www.w3.org/1999/xlink" data-v-d5e3458c="" width="96" height="32" viewBox="0 0 96 14" fill="#1f242a" xmlns="http://www.w3.org/2000/svg" class="text">
            <path data-v-d5e3458c="" d="M0.422062 0.791748L13.454 0.808449L13.4509 3.23565L8.31966 3.22915L8.30216 16.9119L5.48966 16.9083L5.50716 3.22555L0.397461 3.21905L0.422062 0.791748ZM12.8901 5.25415L15.2946 5.25715L15.2918 7.51255L15.3347 7.51265C15.421 7.19055 15.5717 6.89005 15.7867 6.58955C16.0018 6.28915 16.2598 6.01025 16.5821 5.77435C16.883 5.51695 17.2268 5.32405 17.6134 5.17425C17.9786 5.02435 18.3652 4.93895 18.7516 4.93935C19.0522 4.93975 19.2668 4.96155 19.3742 4.96165C19.4815 4.98325 19.6103 5.00495 19.7177 5.00505L19.7145 7.47525C19.5428 7.43215 19.3496 7.41035 19.1564 7.38865C18.9632 7.36695 18.7915 7.34525 18.5983 7.34495C18.1689 7.34445 17.7608 7.42985 17.3742 7.60115C16.9875 7.77255 16.6651 8.02985 16.3642 8.35165C16.0846 8.69505 15.8479 9.10285 15.6755 9.59665C15.5032 10.0904 15.4165 10.6703 15.4157 11.3147L15.4086 16.8566L12.8323 16.8533L12.8901 5.25415ZM31.5105 16.9416L28.9772 16.9383L28.9792 15.3058H28.9363C28.6135 15.9068 28.1406 16.3573 27.5175 16.7217C26.8944 17.086 26.2501 17.2571 25.6061 17.2562C24.0817 17.2543 22.9658 16.8877 22.2798 16.1135C21.5937 15.3608 21.2517 14.2005 21.2536 12.6754L21.2631 5.26485L23.8394 5.26805L23.8303 12.4209C23.829 13.452 24.0213 14.1825 24.4287 14.5912C24.8146 15.0213 25.3725 15.2368 26.081 15.2377C26.6177 15.2384 27.0687 15.153 27.4339 14.9817C27.7991 14.8103 28.0999 14.5959 28.315 14.3169C28.5515 14.038 28.7022 13.6945 28.81 13.308C28.9179 12.9215 28.9614 12.4919 28.962 12.0408L28.9706 5.27465L31.5469 5.27795L31.532 16.9416H31.5105ZM35.8951 13.2096C35.98 13.9615 36.2584 14.4774 36.7518 14.8003C37.2452 15.1016 37.8462 15.2527 38.5332 15.2536C38.7693 15.2539 39.0485 15.2328 39.3491 15.1902C39.6497 15.1476 39.9504 15.0836 40.2081 14.9765C40.4874 14.8695 40.7023 14.7194 40.8743 14.5048C41.0463 14.2902 41.1325 14.0326 41.1115 13.7103C41.0904 13.3881 40.9834 13.1087 40.7475 12.8936C40.5117 12.6785 40.2327 12.5278 39.8894 12.377C39.5461 12.2477 39.1383 12.1398 38.6876 12.0533C38.2368 11.9668 37.7861 11.8588 37.3139 11.7508C36.8417 11.6428 36.3696 11.5133 35.9189 11.3624C35.4682 11.2114 35.082 11.0176 34.7174 10.7379C34.3742 10.4797 34.0741 10.1571 33.8814 9.74885C33.6672 9.34045 33.5605 8.86775 33.5612 8.26625C33.562 7.62185 33.713 7.10655 34.0356 6.67735C34.3367 6.24815 34.745 5.90495 35.2177 5.64785C35.6904 5.39065 36.2273 5.19805 36.8072 5.09135C37.387 4.98465 37.9452 4.94245 38.4605 4.94305C39.0616 4.94385 39.6412 5.00905 40.1778 5.13865C40.7143 5.26815 41.2294 5.46215 41.6584 5.76345C42.1089 6.04325 42.4733 6.43035 42.7519 6.88175C43.0519 7.33325 43.2229 7.89195 43.308 8.53645L40.6243 8.53305C40.4963 7.90995 40.2177 7.50145 39.7886 7.28615C39.338 7.07075 38.8443 6.96275 38.2647 6.96195C38.0929 6.96175 37.8567 6.98295 37.6205 7.00415C37.3629 7.04675 37.1481 7.08945 36.9118 7.17505C36.697 7.26075 36.5036 7.38935 36.3532 7.53955C36.2027 7.68965 36.1165 7.90435 36.1162 8.16215C36.1158 8.48435 36.2228 8.72075 36.4373 8.91435C36.6517 9.10795 36.9306 9.25865 37.2954 9.40945C37.6388 9.53885 38.0466 9.64675 38.4973 9.73325C38.948 9.81975 39.4202 9.92775 39.8924 10.0357C40.3646 10.1437 40.8153 10.2731 41.266 10.4241C41.7166 10.575 42.1243 10.7689 42.4675 11.0485C42.8106 11.3067 43.1108 11.6293 43.325 12.0162C43.5392 12.4032 43.6459 12.8973 43.6452 13.4558C43.6443 14.1432 43.4933 14.723 43.1706 15.2166C42.848 15.6887 42.4395 16.0963 41.9454 16.3964C41.4512 16.6965 40.8712 16.9107 40.2699 17.0602C39.6471 17.1883 39.0459 17.2734 38.4447 17.2726C37.7148 17.2717 37.0279 17.1849 36.4055 17.0123C35.7831 16.8396 35.2252 16.5812 34.7748 16.2584C34.3243 15.9141 33.9599 15.5055 33.7029 14.9897C33.4459 14.4953 33.2964 13.8937 33.2758 13.1848L35.8736 13.1881V13.2096H35.8951ZM44.3856 5.29435L46.3393 5.29685L46.3438 1.77415L48.9201 1.77745L48.9156 5.27865L51.2343 5.28165L51.2319 7.19335L48.9132 7.19035L48.9052 13.4196C48.9049 13.6988 48.9261 13.9136 48.9473 14.1285C48.9685 14.3218 49.0327 14.4937 49.0969 14.6227C49.1826 14.7517 49.3113 14.8593 49.4615 14.9239C49.6332 14.9886 49.8478 15.0318 50.1484 15.0322C50.3201 15.0324 50.5134 15.0326 50.6852 15.0114C50.8569 14.9901 51.0502 14.9689 51.222 14.9262L51.2194 16.9238C50.9403 16.9664 50.6612 16.9875 50.382 17.0086C50.1029 17.0513 49.8452 17.0509 49.5447 17.0505C48.8576 17.0497 48.321 16.9845 47.9132 16.8551C47.5055 16.7257 47.1837 16.532 46.9478 16.2954C46.712 16.0374 46.5621 15.7364 46.4767 15.3712C46.3913 15.0059 46.3489 14.5548 46.3281 14.0822L46.3368 7.20855L44.3831 7.20605L44.3856 5.25135V5.29435ZM53.0377 5.30545L55.4637 5.30855L55.4617 6.89805H55.5047C55.8705 6.21115 56.3649 5.73925 57.0094 5.43935C57.6538 5.13945 58.341 4.98995 59.1139 4.99095C60.0371 4.99215 60.8313 5.14355 61.5179 5.48805C62.2045 5.81115 62.7621 6.24145 63.2123 6.82205C63.6624 7.38105 64.0051 8.04745 64.2188 8.79945C64.4325 9.55155 64.5603 10.3679 64.5592 11.2056C64.5582 12.0004 64.4499 12.7521 64.2557 13.4822C64.0401 14.2122 63.7387 14.8777 63.3301 15.4357C62.9214 15.9936 62.4056 16.444 61.7611 16.7869C61.1166 17.1298 60.3864 17.3007 59.5276 17.2996C59.1626 17.2991 58.7762 17.2557 58.4113 17.1908C58.0464 17.1258 57.6816 17.018 57.3383 16.8672C56.995 16.7164 56.6732 16.5226 56.3944 16.286C56.0941 16.0493 55.8583 15.7698 55.6655 15.4688H55.6225L55.6151 21.2899L53.0388 21.2866L53.0592 5.30545H53.0377ZM62.0259 11.1595C62.0266 10.6439 61.9628 10.1283 61.8132 9.63415C61.685 9.13995 61.4708 8.71005 61.1922 8.32305C60.9136 7.93605 60.5705 7.63485 60.1843 7.39815C59.7767 7.16135 59.3045 7.05335 58.7893 7.05265C57.7158 7.05125 56.8995 7.41545 56.3403 8.16645C55.8026 8.91765 55.5223 9.92685 55.5207 11.1726C55.5199 11.7741 55.5836 12.3111 55.7333 12.8054C55.8829 13.2996 56.0756 13.7295 56.3757 14.095C56.6543 14.4605 56.9975 14.7402 57.4051 14.9555C57.8128 15.1709 58.2635 15.2788 58.8002 15.2795C59.4014 15.2803 59.8739 15.152 60.2821 14.9162C60.6903 14.6805 61.0127 14.3587 61.2923 13.9939C61.5504 13.6076 61.7442 13.1782 61.8522 12.6843C61.9602 12.1689 62.0252 11.675 62.0259 11.1595ZM66.5691 0.876348L69.1451 0.879648L69.1421 3.30685L66.5661 3.30355L66.5691 0.876348ZM66.5631 5.32265L69.1401 5.32595L69.1251 16.9896L66.5481 16.9864L66.5631 5.32265ZM71.4431 0.882548L74.0191 0.885848L73.9981 16.9959L71.4221 16.9926L71.4431 0.882548ZM81.8561 17.3281C80.9321 17.3269 80.0951 17.1755 79.3661 16.8524C78.6361 16.5292 78.0361 16.1203 77.5211 15.5827C77.0281 15.045 76.6421 14.3787 76.3861 13.6265C76.1291 12.8744 75.9801 12.0365 75.9811 11.1558C75.9821 10.2751 76.1121 9.45905 76.3921 8.70765C76.6511 7.95615 77.0381 7.31225 77.5321 6.75445C78.0271 6.21805 78.6501 5.78925 79.3801 5.48945C80.1111 5.18965 80.9481 5.01885 81.8711 5.02005C82.7951 5.02125 83.6321 5.17265 84.3611 5.49585C85.0911 5.79745 85.6911 6.22785 86.2061 6.76545C86.6991 7.30315 87.0851 7.96955 87.3411 8.72165C87.5981 9.47375 87.7471 10.2902 87.7461 11.1708C87.7451 12.073 87.6151 12.8891 87.3351 13.6405C87.0551 14.392 86.6891 15.0359 86.1951 15.5938C85.7001 16.1301 85.0771 16.5589 84.3471 16.8587C83.6161 17.1586 82.8001 17.3293 81.8561 17.3281ZM81.8581 15.2875C82.4161 15.2882 82.9321 15.16 83.3401 14.9242C83.7701 14.6885 84.0921 14.3667 84.3721 13.9804C84.6511 13.5941 84.8451 13.1433 84.9751 12.6709C85.1041 12.177 85.1691 11.6831 85.1701 11.1675C85.1701 10.6735 85.1071 10.1794 84.9781 9.68525C84.8501 9.19105 84.6581 8.76115 84.3791 8.37415C84.1001 7.98715 83.7571 7.68605 83.3501 7.44925C82.9211 7.21235 82.4271 7.08285 81.8691 7.08215C81.3101 7.08145 80.7951 7.20965 80.3871 7.44545C79.9571 7.68115 79.6351 8.00295 79.3551 8.36775C79.0761 8.75405 78.8821 9.18335 78.7521 9.67725C78.6231 10.1711 78.5581 10.6651 78.5571 11.1591C78.5571 11.6746 78.6201 12.1687 78.7491 12.663C78.8771 13.1572 79.0691 13.587 79.3481 13.974C79.6271 14.361 79.9701 14.6836 80.3771 14.9204C80.8061 15.1788 81.3001 15.2868 81.8581 15.2875ZM88.5261 5.35075L90.4801 5.35325L90.4851 1.83055L93.0611 1.83385L93.0561 5.33505L95.3751 5.33805L95.3731 7.24975L93.0541 7.24685L93.0461 13.476C93.0461 13.7552 93.0671 13.9701 93.0881 14.1849C93.1091 14.3782 93.1731 14.5502 93.2381 14.6791C93.3231 14.8081 93.4521 14.9157 93.6021 14.9803C93.7741 15.045 93.9891 15.0882 94.2891 15.0886C94.4611 15.0888 94.6541 15.0891 94.8261 15.0678C94.9981 15.0465 95.1911 15.0253 95.3631 14.9826L95.3601 16.9802C95.0811 17.0229 94.8021 17.0439 94.5231 17.0651C94.2441 17.1077 93.9861 17.1073 93.6851 17.107C92.9981 17.1061 92.4621 17.0409 92.0541 16.9115C91.6461 16.7821 91.3251 16.5884 91.0891 16.3518C90.8531 16.0938 90.7031 15.7928 90.6181 15.4276C90.5321 15.0623 90.4901 14.6112 90.4691 14.1386L90.4781 7.26495L88.5241 7.26245L88.5261 5.30785V5.35075Z" fill="#1F242A">
            </path>
          </svg>