<svg width="408" height="421" viewBox="0 0 408 421" fill="none" xmlns="http://www.w3.org/2000/svg">
<g opacity="0.8" clip-path="url(#clip0_55_2391)">
<path d="M372.963 127.045C368.309 127.045 364.164 129.181 361.435 132.528C357.845 124.494 349.787 118.891 340.414 118.891C331.042 118.891 322.355 124.937 318.996 133.48C317.238 132.158 315.055 131.381 312.696 131.381C306.904 131.381 302.204 136.068 302.195 141.856H387.812C387.803 133.674 381.16 127.036 372.963 127.036V127.045Z" stroke="#0046FF" stroke-miterlimit="10"/>
<path d="M397.268 249.523C394.048 249.523 391.18 251.002 389.293 253.323C386.813 247.767 381.234 243.884 374.749 243.884C368.263 243.884 362.249 248.072 359.927 253.979C358.715 253.064 357.198 252.528 355.56 252.528C351.554 252.528 348.297 255.773 348.297 259.776H407.547C407.547 254.109 402.939 249.523 397.277 249.523H397.268Z" stroke="#0046FF" stroke-miterlimit="10"/>
<path d="M30.1888 109.6C28.2366 109.6 26.488 110.497 25.35 111.902C23.842 108.527 20.4558 106.17 16.5237 106.17C12.5917 106.17 8.93715 108.712 7.52161 112.299C6.78146 111.745 5.86552 111.412 4.87556 111.412C2.44231 111.412 0.471654 113.381 0.462402 115.812H36.4246C36.4246 112.373 33.6305 109.591 30.1888 109.591V109.6Z" stroke="#0046FF" stroke-miterlimit="10"/>
<path d="M146.994 57.8465C142.34 57.8465 138.195 59.9821 135.466 63.3288C131.876 55.2949 123.818 49.6924 114.446 49.6924C105.074 49.6924 96.386 55.7386 93.0275 64.281C91.2697 62.959 89.0862 62.1824 86.727 62.1824C80.9353 62.1824 76.2353 66.8696 76.2261 72.657H161.843C161.834 64.4752 155.191 57.8373 146.994 57.8373V57.8465Z" stroke="#0046FF" stroke-miterlimit="10"/>
<path d="M357.965 102.749C356.356 102.749 354.922 103.489 353.978 104.645C352.738 101.862 349.944 99.9297 346.706 99.9297C343.468 99.9297 340.461 102.019 339.295 104.977C338.684 104.524 337.935 104.247 337.112 104.247C335.104 104.247 333.485 105.865 333.476 107.871H363.1C363.1 105.042 360.796 102.749 357.965 102.749Z" stroke="#0046FF" stroke-miterlimit="10"/>
<path d="M89.8359 290.987C86.8846 290.987 84.2478 292.346 82.5177 294.473C80.2417 289.369 75.1254 285.81 69.1672 285.81C63.2089 285.81 57.6948 289.656 55.5668 295.074C54.4566 294.232 53.0688 293.742 51.5608 293.742C47.8785 293.742 44.8994 296.719 44.8901 300.389H99.2544C99.2544 295.194 95.0262 290.978 89.8267 290.978L89.8359 290.987Z" stroke="#0046FF" stroke-miterlimit="10"/>
<path d="M84.192 90.5829C82.5821 90.5829 81.1481 91.3225 80.2044 92.4781C78.9646 89.6954 76.1706 87.7632 72.9324 87.7632C69.6942 87.7632 66.6873 89.8526 65.5216 92.811C64.911 92.358 64.1616 92.0806 63.3381 92.0806C61.3305 92.0806 59.7114 93.6985 59.7021 95.7047H89.3268C89.3268 92.8757 87.023 90.5829 84.192 90.5829Z" stroke="#0046FF" stroke-miterlimit="10"/>
<path d="M304.471 279.912C302.861 279.912 301.427 280.652 300.483 281.807C299.243 279.025 296.449 277.092 293.211 277.092C289.973 277.092 286.966 279.182 285.8 282.14C285.19 281.687 284.44 281.41 283.617 281.41C281.609 281.41 279.99 283.028 279.981 285.034H309.606C309.606 282.205 307.302 279.912 304.471 279.912Z" stroke="#0046FF" stroke-miterlimit="10"/>
<path d="M166.682 173.039C165.072 173.039 163.638 173.779 162.695 174.935C161.455 172.152 158.661 170.22 155.423 170.22C152.184 170.22 149.178 172.309 148.012 175.268C147.401 174.815 146.652 174.537 145.828 174.537C143.821 174.537 142.202 176.155 142.192 178.161H171.817C171.817 175.332 169.513 173.039 166.682 173.039Z" stroke="#0046FF" stroke-miterlimit="10"/>
<path d="M139.889 273.903C138.279 273.903 136.845 274.642 135.901 275.798C134.661 273.015 131.867 271.083 128.629 271.083C125.391 271.083 122.384 273.172 121.218 276.131C120.608 275.678 119.858 275.4 119.035 275.4C117.027 275.4 115.408 277.018 115.399 279.024H145.024C145.024 276.196 142.72 273.903 139.889 273.903Z" stroke="#0046FF" stroke-miterlimit="10"/>
<path d="M331.486 88.7339L335.483 92.7277" stroke="#0046FF" stroke-miterlimit="10"/>
<path d="M331.551 92.6536L335.409 88.8076" stroke="#0046FF" stroke-miterlimit="10"/>
<path d="M369.928 160.854L373.934 164.858" stroke="#0046FF" stroke-miterlimit="10"/>
<path d="M370.002 164.783L373.86 160.928" stroke="#0046FF" stroke-miterlimit="10"/>
<path d="M167.062 73.3872L171.058 77.3903" stroke="#0046FF" stroke-miterlimit="10"/>
<path d="M167.126 77.3161L170.985 73.4702" stroke="#0046FF" stroke-miterlimit="10"/>
<path d="M104.954 283.277L108.95 287.28" stroke="#0046FF" stroke-miterlimit="10"/>
<path d="M105.019 287.206L108.877 283.351" stroke="#0046FF" stroke-miterlimit="10"/>
<path d="M331.486 227.992L335.483 231.995" stroke="#0046FF" stroke-miterlimit="10"/>
<path d="M331.551 231.921L335.409 228.075" stroke="#0046FF" stroke-miterlimit="10"/>
<path d="M307.607 150.916L311.613 154.91" stroke="#0046FF" stroke-miterlimit="10"/>
<path d="M307.682 154.845L311.53 150.99" stroke="#0046FF" stroke-miterlimit="10"/>
<path d="M362.221 40.8262L366.218 44.82" stroke="#0046FF" stroke-miterlimit="10"/>
<path d="M362.286 44.7458L366.144 40.8999" stroke="#0046FF" stroke-miterlimit="10"/>
<path d="M403.541 1.36865L407.537 5.3625" stroke="#0046FF" stroke-miterlimit="10"/>
<path d="M403.605 5.29756L407.464 1.44238" stroke="#0046FF" stroke-miterlimit="10"/>
<path d="M317.183 269.493L321.189 273.487" stroke="#0046FF" stroke-miterlimit="10"/>
<path d="M317.257 273.422L321.115 269.566" stroke="#0046FF" stroke-miterlimit="10"/>
<path d="M34.4263 0.32373L38.4231 4.32683" stroke="#0046FF" stroke-miterlimit="10"/>
<path d="M34.5005 4.25264L38.3493 0.397461" stroke="#0046FF" stroke-miterlimit="10"/>
<path d="M232.88 73.3872L236.877 77.3903" stroke="#0046FF" stroke-miterlimit="10"/>
<path d="M232.945 77.3161L236.803 73.4609" stroke="#0046FF" stroke-miterlimit="10"/>
<path d="M78.0952 226.198L82.092 230.192" stroke="#0046FF" stroke-miterlimit="10"/>
<path d="M78.1602 230.127L82.0182 226.272" stroke="#0046FF" stroke-miterlimit="10"/>
<path d="M268.759 65.335L270.989 67.563" stroke="#0046FF" stroke-miterlimit="10"/>
<path d="M268.796 67.5169L270.942 65.3813" stroke="#0046FF" stroke-miterlimit="10"/>
<path d="M69.6572 119.483L71.8777 121.711" stroke="#0046FF" stroke-miterlimit="10"/>
<path d="M69.6943 121.674L71.8408 119.529" stroke="#0046FF" stroke-miterlimit="10"/>
<path d="M240.725 251.789L242.955 254.017" stroke="#0046FF" stroke-miterlimit="10"/>
<path d="M240.762 253.98L242.909 251.835" stroke="#0046FF" stroke-miterlimit="10"/>
<path d="M94.4619 118.956L96.6916 121.184" stroke="#0046FF" stroke-miterlimit="10"/>
<path d="M94.499 121.138L96.6455 118.993" stroke="#0046FF" stroke-miterlimit="10"/>
<path d="M282.275 81.4116L284.496 83.6397" stroke="#0046FF" stroke-miterlimit="10"/>
<path d="M282.312 83.5936L284.459 81.4487" stroke="#0046FF" stroke-miterlimit="10"/>
<path d="M70.9619 23.3901L73.1916 25.6182" stroke="#0046FF" stroke-miterlimit="10"/>
<path d="M71.0083 25.5814L73.1547 23.4365" stroke="#0046FF" stroke-miterlimit="10"/>
<path d="M101.79 32.3765L104.01 34.5953" stroke="#0046FF" stroke-miterlimit="10"/>
<path d="M101.827 34.5584L103.973 32.4136" stroke="#0046FF" stroke-miterlimit="10"/>
<path d="M106.313 1.18359L108.543 3.4024" stroke="#0046FF" stroke-miterlimit="10"/>
<path d="M106.351 3.36555L108.497 1.2207" stroke="#0046FF" stroke-miterlimit="10"/>
<path d="M308.496 60.0649L310.725 62.293" stroke="#0046FF" stroke-miterlimit="10"/>
<path d="M308.533 62.2562L310.679 60.1113" stroke="#0046FF" stroke-miterlimit="10"/>
<path d="M386.702 215.936L388.932 218.164" stroke="#0046FF" stroke-miterlimit="10"/>
<path d="M386.739 218.127L388.886 215.982" stroke="#0046FF" stroke-miterlimit="10"/>
<path d="M372.815 298.402L375.045 300.621" stroke="#0046FF" stroke-miterlimit="10"/>
<path d="M372.861 300.584L375.008 298.439" stroke="#0046FF" stroke-miterlimit="10"/>
<path d="M7.24414 250.679L9.4646 252.907" stroke="#0046FF" stroke-miterlimit="10"/>
<path d="M7.28125 252.861L9.42769 250.716" stroke="#0046FF" stroke-miterlimit="10"/>
<path d="M50.8022 232.679L53.032 234.907" stroke="#0046FF" stroke-miterlimit="10"/>
<path d="M50.8394 234.861L52.9858 232.716" stroke="#0046FF" stroke-miterlimit="10"/>
<path d="M196.279 137.307L198.5 139.535" stroke="#0046FF" stroke-miterlimit="10"/>
<path d="M196.316 139.498L198.463 137.354" stroke="#0046FF" stroke-miterlimit="10"/>
<path d="M173.187 161.742L175.416 163.97" stroke="#0046FF" stroke-miterlimit="10"/>
<path d="M173.224 163.924L175.37 161.788" stroke="#0046FF" stroke-miterlimit="10"/>
<path d="M361.99 149.88L364.22 152.099" stroke="#0046FF" stroke-miterlimit="10"/>
<path d="M362.027 152.062L364.174 149.917" stroke="#0046FF" stroke-miterlimit="10"/>
<path d="M235.184 204.528L237.404 206.747" stroke="#0046FF" stroke-miterlimit="10"/>
<path d="M235.221 206.71L237.367 204.565" stroke="#0046FF" stroke-miterlimit="10"/>
<path d="M276.502 166.438L278.732 168.667" stroke="#0046FF" stroke-miterlimit="10"/>
<path d="M276.549 168.62L278.695 166.476" stroke="#0046FF" stroke-miterlimit="10"/>
<g style="mix-blend-mode:multiply" opacity="0.23">
<path d="M86.5884 375.57C94.0732 355.591 101.586 335.761 109.108 316.078C110.939 311.28 117.11 306.768 122.939 305.964C178.071 298.254 234.036 298.485 289.122 306.648C294.951 307.508 300.863 312.029 302.389 316.781C308.634 336.297 314.861 355.915 321.069 375.644C323.576 383.632 319.274 389.058 311.317 387.552C239.967 374.146 166.728 374.183 95.3777 387.672C87.4211 389.188 83.563 383.669 86.5791 375.579L86.5884 375.57Z" fill="#001588"/>
</g>
<path d="M84.4143 362.303L107.526 305.927C109.404 301.351 115.713 297.764 121.662 297.764H290.51C296.459 297.764 302.528 301.351 304.082 305.927L323.262 362.303C325.843 369.893 321.411 376.383 313.242 376.383H93.4534C85.2839 376.383 81.2964 369.893 84.4143 362.303Z" fill="#000008"/>
<path d="M84.0349 359.197L108.164 300.131C110.042 295.536 115.436 294.454 121.413 294.454H290.797C296.764 294.454 302.528 296.248 304.415 302.645L323.659 359.197C326.25 366.815 321.8 373.323 313.603 373.323H93.1018C84.9046 373.323 80.9078 366.815 84.0349 359.197Z" fill="#1A1A1D"/>
<path d="M310.799 330.417C311.428 330.417 311.798 329.983 311.623 329.437L309.236 322.208C309.069 321.699 308.44 321.292 307.829 321.292C307.219 321.292 306.858 321.699 307.024 322.208L309.347 329.437C309.522 329.974 310.17 330.417 310.799 330.417Z" fill="black"/>
<path d="M88.4573 357.237L110.736 300.685C111.828 297.902 115.658 295.702 119.294 295.702H289.501C293.137 295.702 296.783 297.912 297.643 300.685L315.148 357.237C316.545 361.758 313.797 365.548 308.977 365.548H93.9251C89.1049 365.548 86.6809 361.758 88.4573 357.237Z" fill="black"/>
<path d="M308.727 364.605C313.001 364.605 315.444 361.259 314.213 357.246L296.903 300.694C296.144 298.217 292.906 296.248 289.668 296.248H119.118C115.871 296.248 112.475 298.217 111.504 300.694L89.4194 357.246C87.8466 361.268 90.0116 364.605 94.2859 364.605H308.736H308.727Z" fill="#DA5EF0"/>
<mask id="mask0_55_2391" style="mask-type:luminance" maskUnits="userSpaceOnUse" x="88" y="296" width="227" height="69">
<path d="M308.727 364.605C313.001 364.605 315.444 361.259 314.213 357.246L296.903 300.694C296.144 298.217 292.906 296.248 289.668 296.248H119.118C115.871 296.248 112.475 298.217 111.504 300.694L89.4194 357.246C87.8466 361.268 90.0116 364.605 94.2859 364.605H308.736H308.727Z" fill="white"/>
</mask>
<g mask="url(#mask0_55_2391)">
<path d="M331.228 373.083L302.889 291.606H101.262L64.1157 373.083H331.228Z" fill="#0064FF"/>
<path d="M331.228 373.083L302.889 291.606H101.262L64.1157 373.083H331.228Z" fill="#0064FF"/>
<path d="M142.387 289.341L121.718 407.687L62.2653 396.112L60.0171 352.439L67.1226 321.292L82.9711 286.781L93.0649 262.503L104.343 256.143" fill="#00B6FF"/>
</g>
<path d="M108.072 308.118H111.31C112.633 308.118 113.391 308.959 113.012 310.004L100.577 343.795C100.069 345.181 98.394 346.319 96.849 346.319H93.0649L108.072 308.109V308.118Z" fill="black"/>
<path d="M102.15 331.416C103.112 331.416 103.649 332.091 103.334 332.932C103.02 333.773 101.974 334.467 100.993 334.467C100.013 334.467 99.4946 333.783 99.8185 332.932C100.142 332.091 101.188 331.416 102.15 331.416Z" fill="#1F191B"/>
<path d="M102.057 331.675C102.862 331.675 103.297 332.239 103.038 332.941C102.779 333.644 101.909 334.217 101.095 334.217C100.281 334.217 99.846 333.644 100.114 332.941C100.383 332.239 101.252 331.675 102.057 331.675Z" fill="#9BA2A2"/>
<path d="M102.057 331.675C102.862 331.675 103.297 332.239 103.038 332.941C102.779 333.644 101.909 334.217 101.095 334.217C100.281 334.217 99.846 333.644 100.114 332.941C100.383 332.239 101.252 331.675 102.057 331.675Z" fill="#9BA2A2"/>
<path d="M101.937 331.989C102.539 331.989 102.872 332.415 102.677 332.941C102.483 333.468 101.826 333.894 101.216 333.894C100.605 333.894 100.281 333.468 100.485 332.941C100.688 332.415 101.336 331.989 101.946 331.989H101.937Z" fill="#000021"/>
<path d="M104.389 322.984L107.414 315.098C107.571 314.682 108.117 314.35 108.635 314.35C109.154 314.35 109.44 314.682 109.283 315.098L106.322 322.984C106.156 323.428 105.582 323.789 105.055 323.789C104.528 323.789 104.222 323.428 104.398 322.984H104.389Z" fill="#1F191B"/>
<path d="M105.185 323.428C105.481 323.428 105.805 323.225 105.897 322.975L108.839 315.191C108.932 314.96 108.765 314.766 108.478 314.766C108.192 314.766 107.877 314.951 107.794 315.191L104.815 322.975C104.722 323.225 104.889 323.428 105.185 323.428Z" fill="black"/>
<path d="M304.61 336.565C304.98 336.565 305.211 336.297 305.109 335.973L299.29 316.309C299.207 316.032 298.864 315.801 298.522 315.801C298.18 315.801 297.967 316.023 298.05 316.309L303.768 335.973C303.86 336.297 304.249 336.565 304.619 336.565H304.61Z" fill="#1A1A1D"/>
<path opacity="0.2" d="M101.123 332.238C101.493 332.238 101.687 332.497 101.567 332.811C101.447 333.126 101.049 333.394 100.679 333.394C100.309 333.394 100.105 333.135 100.235 332.811C100.364 332.488 100.753 332.238 101.123 332.238Z" fill="white"/>
<path opacity="0.2" d="M101.595 332.646C101.78 332.646 101.882 332.775 101.817 332.932C101.752 333.089 101.558 333.219 101.373 333.219C101.188 333.219 101.086 333.089 101.151 332.932C101.216 332.775 101.41 332.646 101.595 332.646Z" fill="white"/>
<path opacity="0.2" d="M102.381 332.451C102.502 332.451 102.576 332.534 102.529 332.645C102.492 332.756 102.354 332.839 102.233 332.839C102.113 332.839 102.039 332.747 102.085 332.645C102.122 332.544 102.261 332.451 102.381 332.451Z" fill="white"/>
<path d="M272.294 256.19C307.016 221.494 307.016 165.241 272.294 130.545C237.573 95.8485 181.277 95.8485 146.556 130.544C111.834 165.241 111.834 221.494 146.556 256.19C181.277 290.886 237.573 290.886 272.294 256.19Z" stroke="#0099FF" stroke-miterlimit="10"/>
<path d="M267.244 251.143C299.177 219.234 299.177 167.5 267.244 135.591C235.312 103.682 183.539 103.682 151.606 135.591C119.674 167.5 119.674 219.234 151.606 251.143C183.539 283.052 235.312 283.052 267.244 251.143Z" stroke="#0099FF" stroke-miterlimit="10"/>
<path d="M247.858 189.699C249.755 187.397 250.893 184.457 250.893 181.24C250.893 173.881 244.926 167.917 237.561 167.917C230.196 167.917 224.229 173.881 224.229 181.24C224.229 188.599 230.196 194.562 237.561 194.562C240.161 194.562 242.585 193.813 244.629 192.528L249.57 194.802L247.858 189.69V189.699Z" fill="url(#paint0_linear_55_2391)"/>
<path d="M237.552 191.178C243.045 191.178 247.498 186.729 247.498 181.24C247.498 175.751 243.045 171.301 237.552 171.301C232.059 171.301 227.606 175.751 227.606 181.24C227.606 186.729 232.059 191.178 237.552 191.178Z" fill="#00E9F5"/>
<path d="M237.552 171.606C242.992 171.606 247.414 175.979 247.498 181.397C247.498 181.351 247.498 181.295 247.498 181.249C247.498 175.757 243.047 171.311 237.552 171.311C232.056 171.311 227.606 175.757 227.606 181.249C227.606 181.295 227.606 181.351 227.606 181.397C227.689 175.979 232.102 171.606 237.552 171.606Z" fill="#63FFF5"/>
<path d="M172.676 224.912C177.996 202.386 164.035 179.815 141.492 174.498C118.949 169.182 96.3616 183.133 91.041 205.659C85.7204 228.185 99.6818 250.756 122.225 256.072C144.767 261.389 167.355 247.438 172.676 224.912Z" fill="url(#paint1_linear_55_2391)"/>
<path d="M131.858 249.228C150.61 249.228 165.812 234.037 165.812 215.298C165.812 196.56 150.61 181.369 131.858 181.369C113.105 181.369 97.9033 196.56 97.9033 215.298C97.9033 234.037 113.105 249.228 131.858 249.228Z" fill="#00A5D6"/>
<path d="M131.858 182.395C150.436 182.395 165.526 197.308 165.803 215.816C165.803 215.64 165.812 215.474 165.812 215.298C165.812 196.559 150.611 181.369 131.858 181.369C113.104 181.369 97.9033 196.559 97.9033 215.298C97.9033 215.474 97.9126 215.64 97.9126 215.816C98.1901 197.317 113.28 182.395 131.858 182.395Z" fill="#35BEFC"/>
<path d="M131.858 249.227C138.242 249.227 144.209 247.462 149.307 244.411C149.307 234.833 141.452 226.993 131.858 226.993C122.264 226.993 114.418 234.833 114.409 244.411C119.506 247.471 125.474 249.227 131.858 249.227Z" fill="#001ABD"/>
<path d="M131.987 211.24H130.609C128.008 211.24 125.899 213.347 125.899 215.945V230.553C125.899 233.152 128.008 235.258 130.609 235.258H131.987C134.588 235.258 136.696 233.152 136.696 230.553V215.945C136.696 213.347 134.588 211.24 131.987 211.24Z" fill="#FFC3AE"/>
<path d="M139.426 212.026C139.426 215.086 141.905 217.563 144.968 217.563C148.03 217.563 150.51 215.086 150.51 212.026C150.51 208.965 148.03 206.488 144.968 206.488C141.905 206.488 139.426 208.965 139.426 212.026Z" fill="#FFC3AE"/>
<path d="M117.48 217.563C120.541 217.563 123.022 215.084 123.022 212.026C123.022 208.967 120.541 206.488 117.48 206.488C114.42 206.488 111.938 208.967 111.938 212.026C111.938 215.084 114.42 217.563 117.48 217.563Z" fill="#FFC3AE"/>
<path d="M127.87 193.24H135.854C141.979 193.24 146.957 198.214 146.957 204.334V217.637C146.957 224.904 141.054 230.802 133.782 230.802H129.942C122.67 230.802 116.768 224.904 116.768 217.637V204.334C116.768 198.214 121.745 193.24 127.87 193.24Z" fill="#FFDBCC"/>
<path d="M116.768 212.026C116.768 212.026 121.005 208.817 120.7 200.589L134.513 204.62L131.867 201.209L143.21 204.935L140.878 201.985L143.83 203.539C143.83 203.539 144.662 209.012 146.966 211.24V199.203L150.528 195.329L146.161 196.106L149.316 191.298L143.83 194.404L146.134 186.361L139.444 189.643C139.444 189.643 126.344 184.984 117.86 194.987L116.786 193.933V197.344H115.13L115.908 198.592L116.786 212.026H116.768Z" fill="#001480"/>
<path d="M176.885 148.663C193.339 132.221 193.339 105.563 176.885 89.1216C160.431 72.6798 133.754 72.6798 117.3 89.1216C100.846 105.563 100.846 132.221 117.3 148.663C133.754 165.104 160.431 165.104 176.885 148.663Z" fill="url(#paint2_linear_55_2391)"/>
<path d="M171.102 142.884C184.362 129.633 184.362 108.151 171.102 94.9005C157.842 81.6503 136.343 81.6503 123.083 94.9005C109.823 108.151 109.823 129.633 123.083 142.884C136.343 156.134 157.842 156.134 171.102 142.884Z" fill="#000973"/>
<path d="M147.096 85.9881C165.673 85.9881 180.763 100.9 181.041 119.409C181.041 119.233 181.05 119.067 181.05 118.891C181.05 100.151 165.849 84.9619 147.096 84.9619C128.342 84.9619 113.141 100.151 113.141 118.891C113.141 119.067 113.15 119.233 113.15 119.409C113.428 100.91 128.518 85.9881 147.096 85.9881Z" fill="#0026D3"/>
<path d="M147.096 152.83C153.479 152.83 159.447 151.064 164.545 148.013C164.545 138.435 156.69 130.595 147.096 130.595C137.501 130.595 129.656 138.435 129.646 148.013C134.744 151.073 140.712 152.83 147.096 152.83Z" fill="#0032E6"/>
<path d="M147.225 114.833H145.846C143.246 114.833 141.137 116.939 141.137 119.538V134.145C141.137 136.744 143.246 138.851 145.846 138.851H147.225C149.826 138.851 151.934 136.744 151.934 134.145V119.538C151.934 116.939 149.826 114.833 147.225 114.833Z" fill="#FFC3AE"/>
<path d="M154.664 115.618C154.664 118.678 157.143 121.156 160.205 121.156C163.268 121.156 165.747 118.678 165.747 115.618C165.747 112.558 163.268 110.081 160.205 110.081C157.143 110.081 154.664 112.558 154.664 115.618Z" fill="#FFC3AE"/>
<path d="M127.167 115.618C127.167 118.678 129.647 121.156 132.709 121.156C135.771 121.156 138.251 118.678 138.251 115.618C138.251 112.558 135.771 110.081 132.709 110.081C129.647 110.081 127.167 112.558 127.167 115.618Z" fill="#FFC3AE"/>
<path d="M143.099 96.8418H151.083C157.208 96.8418 162.186 101.816 162.186 107.936V121.239C162.186 128.506 156.283 134.404 149.011 134.404H145.171C137.899 134.404 131.997 128.506 131.997 121.239V107.936C131.997 101.816 136.974 96.8418 143.099 96.8418Z" fill="#FFDBCC"/>
<path d="M159.123 106.337C159.123 106.337 158.105 112.753 162.185 116.118V105.828L159.123 106.337Z" fill="#0094C8"/>
<path d="M131.996 115.619V102.186L129.646 99.8096H132.709C132.709 99.8096 139.37 87.6801 159.021 92.5892L156.422 95.1686C156.422 95.1686 160.622 93.6709 165.747 96.8789L160.206 98.6447C160.206 98.6447 167.737 100.706 168.745 108.657L136.743 104.395L135.04 106.79C135.04 106.79 135.253 112.836 131.996 115.619Z" fill="#00A5D6"/>
<path d="M253.299 162.417C277.069 162.417 296.339 143.161 296.339 119.409C296.339 95.6562 277.069 76.4009 253.299 76.4009C229.528 76.4009 210.259 95.6562 210.259 119.409C210.259 143.161 229.528 162.417 253.299 162.417Z" fill="url(#paint3_linear_55_2391)"/>
<path d="M266.29 150.753C283.615 143.582 291.842 123.734 284.666 106.422C277.489 89.1099 257.627 80.8888 240.302 88.0598C222.977 95.2307 214.75 115.078 221.926 132.39C229.102 149.703 248.965 157.924 266.29 150.753Z" fill="#007BFF"/>
<path d="M253.298 86.4969C271.876 86.4969 286.966 101.409 287.244 119.918C287.244 119.742 287.253 119.576 287.253 119.4C287.253 100.66 272.052 85.4707 253.298 85.4707C234.545 85.4707 219.344 100.66 219.344 119.4C219.344 119.576 219.353 119.742 219.353 119.918C219.631 101.418 234.72 86.4969 253.298 86.4969Z" fill="#00BCFF"/>
<path d="M253.299 153.338C259.683 153.338 265.65 151.572 270.748 148.522C270.748 138.944 262.893 131.104 253.299 131.104C243.704 131.104 235.859 138.944 235.85 148.522C240.947 151.582 246.915 153.338 253.299 153.338Z" fill="#00E9F5"/>
<path d="M264.688 143.067H254.788V149.39H264.688V143.067Z" fill="#00BAF5"/>
<path d="M264.688 141.458H254.788V144.667H264.688V141.458Z" fill="#001ABD"/>
<path d="M253.428 115.341H252.05C249.449 115.341 247.34 117.448 247.34 120.047V134.654C247.34 137.253 249.449 139.36 252.05 139.36H253.428C256.029 139.36 258.137 137.253 258.137 134.654V120.047C258.137 117.448 256.029 115.341 253.428 115.341Z" fill="#FFC3AE"/>
<path d="M266.418 121.674C269.479 121.674 271.96 119.195 271.96 116.136C271.96 113.078 269.479 110.599 266.418 110.599C263.357 110.599 260.876 113.078 260.876 116.136C260.876 119.195 263.357 121.674 266.418 121.674Z" fill="#FFC3AE"/>
<path d="M233.379 116.136C233.379 119.197 235.858 121.674 238.921 121.674C241.983 121.674 244.463 119.197 244.463 116.136C244.463 113.076 241.983 110.599 238.921 110.599C235.858 110.599 233.379 113.076 233.379 116.136Z" fill="#FFC3AE"/>
<path d="M249.311 97.3501H257.295C263.42 97.3501 268.397 102.324 268.397 108.444V121.748C268.397 129.014 262.495 134.913 255.223 134.913H251.383C244.111 134.913 238.208 129.014 238.208 121.748V108.444C238.208 102.324 243.186 97.3501 249.311 97.3501Z" fill="#FFDBCC"/>
<path d="M268.61 108.195V116.127C268.61 116.127 265.872 112.179 266.418 108.195C267.805 107.224 268.61 108.195 268.61 108.195Z" fill="#0019C6"/>
<path d="M238.208 115.341L241.946 107.52C241.946 107.52 246.137 112.503 258.137 112.503L256.795 108.851C256.795 108.851 259.108 111.366 263.929 111.412L262.772 109.147L268.61 110.395C268.61 110.395 270.59 100.919 260.876 97.3502C248.552 92.8201 240.235 99.0975 238.208 105.199C238.208 105.199 236.719 111.329 238.208 115.341Z" fill="#0031D7"/>
<g style="mix-blend-mode:multiply">
<path d="M213.451 327.856C213.451 330.112 208.64 331.933 202.7 331.933C196.76 331.933 191.949 330.103 191.949 327.856C191.949 325.61 196.76 323.779 202.7 323.779C208.64 323.779 213.451 325.61 213.451 327.856Z" fill="#00B6FF"/>
</g>
<g style="mix-blend-mode:multiply">
<path d="M294.904 339.459C294.904 341.058 291.481 342.362 287.262 342.362C283.043 342.362 279.62 341.058 279.62 339.459C279.62 337.859 283.043 336.556 287.262 336.556C291.481 336.556 294.904 337.859 294.904 339.459Z" fill="#00B6FF"/>
</g>
<g style="mix-blend-mode:multiply">
<path d="M151.25 317.169C153.238 317.169 154.849 316.557 154.849 315.801C154.849 315.045 153.238 314.433 151.25 314.433C149.262 314.433 147.651 315.045 147.651 315.801C147.651 316.557 149.262 317.169 151.25 317.169Z" fill="#00B6FF"/>
</g>
<path d="M202.237 321.57C226.263 321.57 245.74 302.107 245.74 278.1C245.74 254.092 226.263 234.629 202.237 234.629C178.212 234.629 158.735 254.092 158.735 278.1C158.735 302.107 178.212 321.57 202.237 321.57Z" fill="url(#paint4_linear_55_2391)"/>
<path d="M202.237 313.268C221.674 313.268 237.432 297.523 237.432 278.1C237.432 258.677 221.674 242.932 202.237 242.932C182.8 242.932 167.043 258.677 167.043 278.1C167.043 297.523 182.8 313.268 202.237 313.268Z" fill="#0009B2"/>
<path d="M202.237 243.995C221.49 243.995 237.126 259.452 237.413 278.627C237.413 278.451 237.422 278.275 237.422 278.09C237.422 258.667 221.666 242.922 202.228 242.922C182.79 242.922 167.034 258.667 167.034 278.09C167.034 278.266 167.043 278.442 167.043 278.627C167.33 259.452 182.965 243.995 202.219 243.995H202.237Z" fill="#0011F1"/>
<path d="M217.882 270.556H186.185V302.229H217.882V270.556Z" fill="#000919"/>
<path d="M202.237 313.258C208.852 313.258 215.032 311.437 220.315 308.266C220.315 298.337 212.173 290.21 202.237 290.21C192.3 290.21 184.168 298.337 184.159 308.266C189.442 311.437 195.631 313.258 202.237 313.258Z" fill="#0032E6"/>
<path d="M202.552 273.884H200.775C198.174 273.884 196.066 275.991 196.066 278.59V294.075C196.066 296.674 198.174 298.781 200.775 298.781H202.552C205.152 298.781 207.261 296.674 207.261 294.075V278.59C207.261 275.991 205.152 273.884 202.552 273.884Z" fill="#FFC3AE"/>
<path d="M208.584 274.707C208.584 277.878 211.156 280.448 214.329 280.448C217.503 280.448 220.075 277.878 220.075 274.707C220.075 271.535 217.503 268.965 214.329 268.965C211.156 268.965 208.584 271.535 208.584 274.707Z" fill="#FFC3AE"/>
<path d="M184.409 274.707C184.409 277.878 186.981 280.448 190.154 280.448C193.328 280.448 195.9 277.878 195.9 274.707C195.9 271.535 193.328 268.965 190.154 268.965C186.981 268.965 184.409 271.535 184.409 274.707Z" fill="#FFC3AE"/>
<path d="M197.704 255.246H206.78C212.905 255.246 217.882 260.219 217.882 266.34V281.002C217.882 288.269 211.98 294.167 204.708 294.167H199.776C192.504 294.167 186.602 288.269 186.602 281.002V266.34C186.602 260.219 191.579 255.246 197.704 255.246Z" fill="#FFDBCC"/>
<path d="M186.601 276.371C186.601 276.371 199.175 277.092 210.555 263.557C210.555 263.557 209.565 270.611 217.882 274.577L218.243 265.887C218.243 265.887 218.234 252.315 204.735 251.03C192.578 249.875 186.185 257.511 186.185 264.879L186.601 276.371Z" fill="#000958"/>
<path d="M279.536 257.252C302.724 257.252 321.522 238.469 321.522 215.298C321.522 192.128 302.724 173.344 279.536 173.344C256.349 173.344 237.551 192.128 237.551 215.298C237.551 238.469 256.349 257.252 279.536 257.252Z" fill="url(#paint5_linear_55_2391)"/>
<path d="M279.537 249.228C298.289 249.228 313.491 234.037 313.491 215.298C313.491 196.56 298.289 181.369 279.537 181.369C260.784 181.369 245.582 196.56 245.582 215.298C245.582 234.037 260.784 249.228 279.537 249.228Z" fill="#0009B2"/>
<path d="M279.537 182.395C298.114 182.395 313.204 197.308 313.482 215.816C313.482 215.64 313.491 215.474 313.491 215.298C313.491 196.559 298.29 181.369 279.537 181.369C260.783 181.369 245.582 196.559 245.582 215.298C245.582 215.474 245.591 215.64 245.591 215.816C245.869 197.317 260.959 182.395 279.537 182.395Z" fill="#0011F1"/>
<path d="M294.626 216.925H264.438V230.811H294.626V216.925Z" fill="#0072BF"/>
<path d="M279.537 249.227C285.92 249.227 291.888 247.462 296.986 244.411C296.986 234.833 289.131 226.993 279.537 226.993C269.942 226.993 262.097 234.833 262.087 244.411C267.185 247.471 273.153 249.227 279.537 249.227Z" fill="#0032E6"/>
<path d="M279.666 211.24H278.287C275.687 211.24 273.578 213.347 273.578 215.945V230.553C273.578 233.152 275.687 235.258 278.287 235.258H279.666C282.267 235.258 284.375 233.152 284.375 230.553V215.945C284.375 213.347 282.267 211.24 279.666 211.24Z" fill="#FFC3AE"/>
<path d="M291.194 217.563C294.254 217.563 296.736 215.084 296.736 212.026C296.736 208.967 294.254 206.488 291.194 206.488C288.133 206.488 285.652 208.967 285.652 212.026C285.652 215.084 288.133 217.563 291.194 217.563Z" fill="#FFC3AE"/>
<path d="M267.87 217.563C270.931 217.563 273.412 215.084 273.412 212.026C273.412 208.967 270.931 206.488 267.87 206.488C264.809 206.488 262.328 208.967 262.328 212.026C262.328 215.084 264.809 217.563 267.87 217.563Z" fill="#FFC3AE"/>
<path d="M275.54 193.24H283.524C289.649 193.24 294.626 198.214 294.626 204.334V217.637C294.626 224.904 288.724 230.802 281.452 230.802H277.612C270.34 230.802 264.438 224.904 264.438 217.637V204.334C264.438 198.214 269.415 193.24 275.54 193.24Z" fill="#FFDBCC"/>
<path d="M267.87 199.924H264.438V230.802H267.87V199.924Z" fill="#0094C8"/>
<path d="M294.626 204.916H291.194V230.811H294.626V204.916Z" fill="#0077C6"/>
<path d="M267.87 204.657L270.692 199.923C270.692 199.923 274.124 207.643 284.375 209.64L282.432 204.786C282.432 204.786 284.829 209.048 290.611 209.64L287.105 206.487C287.105 206.487 291.703 209.825 294.627 209.64V203.279C294.627 203.279 294.96 188.506 279.537 187.683C266.158 186.971 264.447 199.933 264.447 199.933L267.084 203.668L267.879 204.666L267.87 204.657Z" fill="#0094C8"/>
<path d="M273.411 217.314C275.798 217.314 277.732 215.381 277.732 212.996C277.732 210.612 275.798 208.679 273.411 208.679C271.025 208.679 269.091 210.612 269.091 212.996C269.091 215.381 271.025 217.314 273.411 217.314Z" stroke="#000958" stroke-miterlimit="10"/>
<path d="M285.652 217.314C288.038 217.314 289.972 215.381 289.972 212.996C289.972 210.612 288.038 208.679 285.652 208.679C283.265 208.679 281.331 210.612 281.331 212.996C281.331 215.381 283.265 217.314 285.652 217.314Z" stroke="#000958" stroke-miterlimit="10"/>
<path d="M277.732 212.571C277.732 212.571 279.138 211.323 281.331 212.571" stroke="#000958" stroke-miterlimit="10"/>
<path d="M245.138 182.95C245.138 180.962 243.529 179.354 241.539 179.354C239.55 179.354 237.94 180.962 237.94 182.95C237.94 184.938 239.513 186.5 241.475 186.537L242.936 187.637L242.751 186.324C244.139 185.825 245.138 184.512 245.138 182.959V182.95Z" fill="#0051FD"/>
<path d="M241.539 179.437C243.51 179.437 245.111 181.027 245.129 182.996C245.129 182.978 245.129 182.968 245.129 182.95C245.129 180.962 243.519 179.354 241.53 179.354C239.541 179.354 237.931 180.962 237.931 182.95C237.931 182.968 237.931 182.978 237.931 182.987C237.95 181.018 239.55 179.437 241.521 179.437H241.539Z" fill="#0092FD"/>
<path d="M242.751 186.398L242.927 187.619H242.936L242.761 186.389C242.761 186.389 242.761 186.389 242.751 186.389V186.398Z" fill="#0092FD"/>
<path d="M241.845 180.204C241.845 183.495 239.171 186.167 235.877 186.167C232.583 186.167 229.91 183.495 229.91 180.204C229.91 176.913 232.583 174.241 235.877 174.241C239.171 174.241 241.845 176.913 241.845 180.204Z" fill="#00E9F5"/>
<path d="M235.877 175.138C233.083 175.138 230.816 177.403 230.816 180.195C230.816 181.544 231.353 182.756 232.213 183.662L231.196 185.483L233.74 184.762C234.397 185.067 235.119 185.252 235.886 185.252C238.681 185.252 240.947 182.987 240.947 180.195C240.947 177.403 238.681 175.138 235.886 175.138H235.877Z" fill="#001ABD"/>
<path d="M235.877 175.239C238.653 175.239 240.91 177.477 240.938 180.25C240.938 180.232 240.938 180.213 240.938 180.195C240.938 177.403 238.671 175.138 235.877 175.138C233.083 175.138 230.816 177.403 230.816 180.195C230.816 180.213 230.816 180.232 230.816 180.25C230.844 177.477 233.092 175.239 235.877 175.239Z" fill="#0063F3"/>
<path d="M232.167 183.735L231.187 185.492L231.251 185.473L232.195 183.782C232.195 183.782 232.176 183.754 232.158 183.735H232.167Z" fill="#0063F3"/>
<path d="M279.287 117.837C276.03 113.889 274.078 108.823 274.078 103.313C274.078 90.6751 284.329 80.4316 296.977 80.4316C309.624 80.4316 319.875 90.6751 319.875 103.313C319.875 115.951 309.624 126.195 296.977 126.195C292.517 126.195 288.354 124.909 284.829 122.709L276.336 126.611L279.278 117.837H279.287Z" fill="url(#paint6_linear_55_2391)"/>
<path d="M296.986 120.379C306.423 120.379 314.074 112.734 314.074 103.304C314.074 93.873 306.423 86.228 296.986 86.228C287.548 86.228 279.897 93.873 279.897 103.304C279.897 112.734 287.548 120.379 296.986 120.379Z" fill="#0051FD"/>
<path d="M295.367 111.088L304.174 104.617C305.47 103.665 305.47 101.732 304.174 100.78L295.367 94.3086C293.794 93.153 291.573 94.2716 291.573 96.2316V109.175C291.573 111.125 293.794 112.253 295.367 111.098V111.088Z" fill="#DDF5FF"/>
<path d="M295.367 94.4935L304.174 100.965C304.794 101.418 305.109 102.102 305.137 102.796C305.164 102.047 304.85 101.279 304.174 100.789L295.367 94.3179C293.794 93.1622 291.573 94.2809 291.573 96.2408V96.4257C291.573 94.475 293.794 93.3471 295.367 94.5028V94.4935Z" fill="white"/>
<path d="M296.986 86.755C287.641 86.755 280.046 94.262 279.907 103.572C279.907 103.489 279.907 103.396 279.907 103.313C279.907 93.8829 287.558 86.2373 296.995 86.2373C306.432 86.2373 314.083 93.8829 314.083 103.313C314.083 103.396 314.083 103.489 314.083 103.572C313.945 94.262 306.358 86.755 297.004 86.755H296.986Z" fill="#0079FD"/>
<path d="M305.84 199.988C301.15 194.293 298.337 186.999 298.337 179.048C298.337 160.836 313.112 146.062 331.348 146.062C349.583 146.062 364.359 160.826 364.359 179.048C364.359 197.27 349.583 212.035 331.348 212.035C324.918 212.035 318.913 210.186 313.843 207.005L301.612 212.635L305.849 199.988H305.84Z" fill="url(#paint7_linear_55_2391)"/>
<path d="M348.746 196.45C358.36 186.842 358.36 171.266 348.746 161.659C339.131 152.051 323.543 152.051 313.929 161.659C304.314 171.266 304.314 186.842 313.929 196.45C323.543 206.057 339.131 206.057 348.746 196.45Z" fill="#00E9F5"/>
<path d="M337.843 179.464H333.577V194.626H327.286V179.464H324.279V174.112H327.286V170.645C327.286 168.149 328.452 164.275 333.642 164.275L338.324 164.293V169.498H334.928C334.382 169.498 333.587 169.766 333.587 170.941V174.112H338.407L337.861 179.464H337.843Z" fill="#001ABD"/>
<path d="M333.633 164.515L338.314 164.534V164.293L333.633 164.275C328.443 164.275 327.277 168.149 327.277 170.645V170.885C327.277 168.389 328.443 164.515 333.633 164.515Z" fill="#0051FD"/>
<path d="M333.568 174.112V174.352H338.361L338.389 174.112H333.568Z" fill="#0051FD"/>
<path d="M327.277 174.112H324.27V174.352H327.277V174.112Z" fill="#0051FD"/>
<path d="M331.338 155.196C317.867 155.196 306.922 166.013 306.728 179.427C306.728 179.307 306.719 179.178 306.719 179.058C306.719 165.467 317.747 154.457 331.338 154.457C344.929 154.457 355.957 165.477 355.957 179.058C355.957 179.187 355.957 179.307 355.948 179.427C355.745 166.013 344.809 155.196 331.338 155.196Z" fill="#63FFF5"/>
<path d="M225.783 229.73C228.947 225.884 230.844 220.966 230.844 215.603C230.844 203.317 220.88 193.36 208.584 193.36C196.288 193.36 186.324 203.317 186.324 215.603C186.324 227.89 196.288 237.847 208.584 237.847C212.923 237.847 216.966 236.599 220.389 234.454L228.642 238.254L225.783 229.721V229.73Z" fill="url(#paint8_linear_55_2391)"/>
<path d="M208.584 232.198C217.756 232.198 225.191 224.769 225.191 215.604C225.191 206.439 217.756 199.009 208.584 199.009C199.412 199.009 191.977 206.439 191.977 215.604C191.977 224.769 199.412 232.198 208.584 232.198Z" fill="#000973"/>
<path d="M208.584 199.517C217.669 199.517 225.052 206.812 225.182 215.863C225.182 215.779 225.182 215.696 225.182 215.613C225.182 206.451 217.743 199.018 208.574 199.018C199.406 199.018 191.967 206.451 191.967 215.613C191.967 215.696 191.967 215.779 191.967 215.863C192.106 206.812 199.48 199.517 208.565 199.517H208.584Z" fill="#0009AD"/>
<path d="M213.58 205.351H203.597C202.977 205.351 202.468 205.85 202.468 206.469V226.022C202.468 226.642 202.977 227.15 203.597 227.15H213.58C214.2 227.15 214.699 226.642 214.699 226.022V206.469C214.699 205.85 214.2 205.351 213.58 205.351ZM208.519 226.568C207.881 226.568 207.363 226.05 207.363 225.403C207.363 224.756 207.881 224.247 208.519 224.247C209.157 224.247 209.685 224.765 209.685 225.403C209.685 226.041 209.167 226.568 208.519 226.568ZM213.358 222.731C213.358 223.221 212.969 223.61 212.479 223.61H204.698C204.208 223.61 203.828 223.212 203.828 222.731V207.495C203.828 207.015 204.217 206.617 204.698 206.617H212.479C212.969 206.617 213.358 207.015 213.358 207.495V222.731Z" fill="#0051FD"/>
<path d="M221.509 84.0929C224.766 80.1452 226.718 75.079 226.718 69.5689C226.718 56.931 216.467 46.6875 203.819 46.6875C191.172 46.6875 180.921 56.931 180.921 69.5689C180.921 82.2069 191.172 92.4504 203.819 92.4504C208.279 92.4504 212.442 91.1653 215.967 88.965L224.46 92.8664L221.518 84.0929H221.509Z" fill="url(#paint9_linear_55_2391)"/>
<path d="M203.819 86.6443C213.257 86.6443 220.908 78.9993 220.908 69.5687C220.908 60.1382 213.257 52.4932 203.819 52.4932C194.382 52.4932 186.731 60.1382 186.731 69.5687C186.731 78.9993 194.382 86.6443 203.819 86.6443Z" fill="#0015B8"/>
<path d="M203.819 53.0109C213.164 53.0109 220.759 60.5178 220.898 69.8276C220.898 69.7444 220.898 69.6519 220.898 69.5687C220.898 60.1388 213.247 52.4932 203.81 52.4932C194.373 52.4932 186.722 60.1388 186.722 69.5687C186.722 69.6519 186.722 69.7444 186.722 69.8276C186.86 60.5178 194.447 53.0109 203.801 53.0109H203.819Z" fill="#0048E3"/>
<path d="M210.472 61.4702H197.177C196.251 61.4702 195.502 62.2191 195.502 63.1343V76.4194C195.502 77.3347 196.251 78.0835 197.177 78.0835H210.472C211.387 78.0835 212.128 77.3347 212.128 76.4194V63.1343C212.128 62.2191 211.387 61.4702 210.472 61.4702ZM203.819 66.4625C205.661 66.4625 207.141 67.951 207.141 69.7723C207.141 71.5935 205.661 73.0912 203.819 73.0912C201.978 73.0912 200.507 71.5935 200.507 69.7723C200.507 67.951 201.997 66.4625 203.819 66.4625ZM197.584 76.4194C197.334 76.4194 197.177 76.253 197.177 76.0126V68.9494H198.916C198.833 69.1991 198.833 69.5319 198.833 69.7815C198.833 72.5273 201.062 74.7646 203.81 74.7646C206.558 74.7646 208.797 72.5273 208.797 69.7815C208.797 69.5411 208.797 69.1991 208.704 68.9494H210.462V76.0126C210.462 76.253 210.287 76.4194 210.046 76.4194H197.584ZM210.472 65.2145C210.472 65.4641 210.296 65.6305 210.055 65.6305H208.39C208.149 65.6305 207.974 65.4641 207.974 65.2145V63.5596C207.974 63.31 208.149 63.1436 208.39 63.1436H210.055C210.296 63.1436 210.472 63.3192 210.472 63.5596V65.2145Z" fill="#00E9F5"/>
<path d="M233.629 278.09C231.917 276.01 230.89 273.348 230.89 270.454C230.89 263.807 236.284 258.417 242.936 258.417C249.588 258.417 254.982 263.807 254.982 270.454C254.982 277.101 249.588 282.491 242.936 282.491C240.586 282.491 238.403 281.816 236.552 280.661L232.093 282.713L233.638 278.1L233.629 278.09Z" fill="url(#paint10_linear_55_2391)"/>
<path d="M249.281 276.791C252.79 273.285 252.79 267.601 249.281 264.095C245.773 260.59 240.085 260.59 236.576 264.095C233.068 267.601 233.068 273.285 236.576 276.791C240.085 280.296 245.773 280.296 249.281 276.791Z" fill="#001480"/>
<path d="M242.936 261.745C238.023 261.745 234.027 265.693 233.953 270.583C233.953 270.537 233.953 270.491 233.953 270.445C233.953 265.489 237.977 261.468 242.936 261.468C247.895 261.468 251.92 265.489 251.92 270.445C251.92 270.491 251.92 270.537 251.92 270.583C251.846 265.693 247.858 261.745 242.936 261.745Z" fill="#005BD3"/>
<path d="M237.607 269.761C237.783 268.457 238.819 267.385 240.114 267.181C241.243 267.006 242.279 267.459 242.927 268.244C243.574 267.459 244.611 267.006 245.739 267.181C247.044 267.385 248.08 268.448 248.247 269.761C248.404 270.953 247.867 272.026 246.979 272.636L246.97 272.645C246.951 272.654 246.933 272.664 246.924 272.682L242.927 275.446L238.93 272.682C238.93 272.682 238.893 272.664 238.884 272.645H238.874V272.636C237.996 272.016 237.459 270.944 237.607 269.761Z" fill="#00E9F5"/>
<path d="M248.265 269.872C248.099 268.568 247.053 267.496 245.758 267.292C244.629 267.116 243.593 267.569 242.945 268.355C242.298 267.569 241.261 267.116 240.133 267.292C238.828 267.496 237.792 268.559 237.625 269.872C237.607 270.001 237.598 270.121 237.598 270.241C237.598 270.084 237.598 269.927 237.625 269.761C237.801 268.457 238.837 267.385 240.133 267.181C241.261 267.006 242.298 267.459 242.945 268.244C243.593 267.459 244.629 267.006 245.758 267.181C247.062 267.385 248.099 268.448 248.265 269.761C248.284 269.918 248.293 270.084 248.293 270.241C248.293 270.121 248.293 269.992 248.265 269.872Z" fill="#5DFFF5"/>
<path d="M101.28 187.082C105.638 181.794 108.247 175.018 108.247 167.64C108.247 150.722 94.5264 137.011 77.5954 137.011C60.6644 137.011 46.9438 150.722 46.9438 167.64C46.9438 184.558 60.6644 198.269 77.5954 198.269C83.5722 198.269 89.1418 196.558 93.851 193.6L105.212 198.823L101.271 187.073L101.28 187.082Z" fill="url(#paint11_linear_55_2391)"/>
<path d="M77.5953 190.494C90.2265 190.494 100.466 180.262 100.466 167.64C100.466 155.018 90.2265 144.786 77.5953 144.786C64.9642 144.786 54.7246 155.018 54.7246 167.64C54.7246 180.262 64.9642 190.494 77.5953 190.494Z" fill="#001480"/>
<path d="M77.5953 145.48C90.1039 145.48 100.272 155.52 100.457 167.982C100.457 167.871 100.457 167.751 100.457 167.64C100.457 155.02 90.2149 144.786 77.5861 144.786C64.9572 144.786 54.7153 155.02 54.7153 167.64C54.7153 167.76 54.7153 167.871 54.7153 167.982C54.9004 155.52 65.059 145.48 77.5768 145.48H77.5953Z" fill="#005BD3"/>
<path d="M91.159 165.902C90.7241 162.574 88.0873 159.865 84.7659 159.347C81.8886 158.904 79.2518 160.05 77.5957 162.047C75.9488 160.05 73.3028 158.904 70.4254 159.347C67.104 159.865 64.4672 162.574 64.0324 165.902C63.6345 168.925 65.0038 171.662 67.252 173.233L67.289 173.261C67.3353 173.289 67.3723 173.317 67.4186 173.344L77.6049 180.38L87.7913 173.344C87.7913 173.344 87.8745 173.289 87.9208 173.261L87.9578 173.233C90.1968 171.662 91.5661 168.925 91.1775 165.902H91.159Z" fill="#00E9F5"/>
<path d="M64.0412 166.17C64.476 162.842 67.1128 160.133 70.4342 159.616C73.3116 159.172 75.9484 160.318 77.6045 162.315C79.2513 160.318 81.8881 159.172 84.7747 159.616C88.0961 160.133 90.7329 162.842 91.1678 166.17C91.214 166.494 91.2233 166.808 91.2325 167.113C91.2325 166.716 91.2233 166.309 91.1678 165.902C90.7329 162.574 88.0961 159.865 84.7747 159.347C81.8973 158.904 79.2605 160.05 77.6045 162.047C75.9576 160.05 73.3116 158.904 70.4342 159.347C67.1128 159.865 64.476 162.574 64.0412 165.902C63.9856 166.309 63.9671 166.716 63.9764 167.113C63.9764 166.799 63.9949 166.485 64.0412 166.17Z" fill="#5DFFF5"/>
<path d="M262.143 320.645C257.545 315.061 254.779 307.906 254.779 300.103C254.779 282.232 269.277 267.745 287.16 267.745C305.044 267.745 319.542 282.232 319.542 300.103C319.542 317.973 305.044 332.46 287.16 332.46C280.851 332.46 274.966 330.648 269.98 327.533L257.971 333.052L262.134 320.645H262.143Z" fill="url(#paint12_linear_55_2391)"/>
<path d="M287.161 324.241C300.502 324.241 311.317 313.434 311.317 300.103C311.317 286.771 300.502 275.964 287.161 275.964C273.819 275.964 263.004 286.771 263.004 300.103C263.004 313.434 273.819 324.241 287.161 324.241Z" fill="#001480"/>
<path d="M287.161 276.685C273.94 276.685 263.207 287.298 263.013 300.463C263.013 300.343 263.004 300.223 263.004 300.093C263.004 286.762 273.819 275.955 287.161 275.955C300.502 275.955 311.317 286.762 311.317 300.093C311.317 300.214 311.317 300.334 311.308 300.463C311.114 287.298 300.382 276.685 287.161 276.685Z" fill="#005BD3"/>
<path d="M287.161 314.285C294.999 314.285 301.353 307.935 301.353 300.103C301.353 292.27 294.999 285.921 287.161 285.921C279.322 285.921 272.968 292.27 272.968 300.103C272.968 307.935 279.322 314.285 287.161 314.285Z" fill="#5DFFF5"/>
<path d="M287.161 286.281C294.942 286.281 301.251 292.531 301.353 300.288C301.353 300.223 301.362 300.167 301.362 300.103C301.362 292.272 295.006 285.921 287.161 285.921C279.315 285.921 272.968 292.272 272.968 300.103C272.968 300.167 272.968 300.223 272.977 300.288C273.079 292.54 279.389 286.281 287.161 286.281Z" fill="#ABFFF5"/>
<path d="M280.36 297.801H285.375L281.73 294.158" stroke="#001480" stroke-linecap="round" stroke-linejoin="round"/>
<path d="M293.952 297.764H288.937L292.582 294.121" stroke="#001480" stroke-linecap="round" stroke-linejoin="round"/>
<path d="M277.687 301.351C277.825 306.463 282.007 310.577 287.16 310.577C292.314 310.577 296.496 306.472 296.634 301.351H277.687Z" fill="#001480"/>
<path d="M288.613 310.448C290.565 310.143 292.332 309.255 293.701 307.952C292.647 305.437 290.186 303.671 287.29 303.671C284.394 303.671 281.831 305.52 280.823 308.118C282.164 309.329 283.848 310.161 285.717 310.448H288.622H288.613Z" fill="#0032E6"/>
<path d="M164.489 301.592C166.923 298.633 168.384 294.852 168.384 290.729C168.384 281.28 160.715 273.616 151.259 273.616C141.804 273.616 134.134 281.28 134.134 290.729C134.134 300.177 141.804 307.841 151.259 307.841C154.599 307.841 157.708 306.88 160.344 305.234L166.691 308.156L164.489 301.592Z" fill="url(#paint13_linear_55_2391)"/>
<path d="M160.28 299.746C165.269 294.76 165.269 286.676 160.28 281.69C155.29 276.704 147.2 276.704 142.21 281.69C137.221 286.676 137.221 294.76 142.21 299.746C147.2 304.732 155.29 304.732 160.28 299.746Z" fill="#001480"/>
<path d="M151.25 278.34C158.244 278.34 163.916 283.952 164.018 290.914C164.018 290.849 164.018 290.784 164.018 290.72C164.018 283.666 158.3 277.952 151.241 277.952C144.182 277.952 138.464 283.666 138.464 290.72C138.464 290.784 138.464 290.849 138.464 290.914C138.566 283.952 144.246 278.34 151.232 278.34H151.25Z" fill="#005BD3"/>
<path d="M152.96 298.033C156.998 297.081 159.499 293.037 158.546 289.002C157.593 284.967 153.547 282.468 149.508 283.421C145.47 284.373 142.969 288.416 143.922 292.451C144.876 296.486 148.922 298.985 152.96 298.033Z" fill="#5DFFF5"/>
<path d="M151.25 283.416C147.133 283.416 143.802 286.726 143.747 290.821C143.747 290.784 143.747 290.756 143.747 290.729C143.747 286.587 147.105 283.222 151.259 283.222C155.413 283.222 158.772 286.578 158.772 290.729C158.772 290.766 158.772 290.793 158.772 290.821C158.716 286.726 155.385 283.416 151.268 283.416H151.25Z" fill="#ABFFF5"/>
<path d="M154.849 289.508H152.194L154.127 287.576" stroke="#001480" stroke-linecap="round" stroke-linejoin="round"/>
<path d="M147.66 289.49H150.315L148.391 287.558" stroke="#001480" stroke-linecap="round" stroke-linejoin="round"/>
<path d="M156.264 291.385C156.19 294.094 153.979 296.266 151.25 296.266C148.521 296.266 146.309 294.094 146.235 291.385H156.255H156.264Z" fill="#001480"/>
<path d="M150.482 296.193C149.446 296.035 148.521 295.564 147.79 294.871C148.345 293.539 149.65 292.605 151.185 292.605C152.721 292.605 154.072 293.585 154.609 294.954C153.896 295.592 153.008 296.035 152.018 296.183H150.482V296.193Z" fill="#0032E6"/>
<path d="M192.467 161.603C195.41 158.025 197.177 153.449 197.177 148.456C197.177 137.02 187.897 127.757 176.462 127.757C165.026 127.757 155.747 137.03 155.747 148.456C155.747 159.883 165.026 169.156 176.462 169.156C180.495 169.156 184.261 168 187.453 166.004L195.132 169.535L192.467 161.594V161.603Z" fill="url(#paint14_linear_55_2391)"/>
<path d="M187.381 159.375C193.415 153.345 193.415 143.57 187.381 137.54C181.347 131.511 171.564 131.511 165.53 137.54C159.496 143.57 159.496 153.345 165.53 159.375C171.564 165.404 181.347 165.404 187.381 159.375Z" fill="#001480"/>
<path d="M176.461 133.489C184.918 133.489 191.783 140.275 191.912 148.697C191.912 148.623 191.912 148.54 191.912 148.466C191.912 139.933 184.992 133.027 176.461 133.027C167.931 133.027 161.011 139.942 161.011 148.466C161.011 148.54 161.011 148.623 161.011 148.697C161.14 140.275 168.005 133.489 176.461 133.489Z" fill="#005BD3"/>
<path d="M178.545 157.305C183.429 156.153 186.453 151.264 185.301 146.384C184.148 141.504 179.255 138.482 174.371 139.633C169.488 140.785 166.463 145.675 167.616 150.555C168.768 155.435 173.662 158.457 178.545 157.305Z" fill="#5DFFF5"/>
<path d="M176.461 139.618C171.484 139.618 167.45 143.621 167.385 148.577C167.385 148.54 167.385 148.503 167.385 148.457C167.385 143.446 171.456 139.378 176.471 139.378C181.485 139.378 185.556 143.437 185.556 148.457C185.556 148.494 185.556 148.531 185.556 148.577C185.491 143.621 181.457 139.618 176.48 139.618H176.461Z" fill="#ABFFF5"/>
<path d="M180.81 146.986H177.6L179.931 144.657" stroke="#001480" stroke-linecap="round" stroke-linejoin="round"/>
<path d="M172.122 146.968H175.323L172.992 144.639" stroke="#001480" stroke-linecap="round" stroke-linejoin="round"/>
<path d="M182.521 149.261C182.438 152.534 179.755 155.16 176.461 155.16C173.168 155.16 170.485 152.534 170.401 149.261H182.521Z" fill="#001480"/>
<path d="M175.536 155.085C174.287 154.891 173.158 154.318 172.279 153.486C172.955 151.877 174.528 150.75 176.378 150.75C178.228 150.75 179.866 151.933 180.513 153.597C179.653 154.374 178.58 154.901 177.386 155.085H175.527H175.536Z" fill="#0032E6"/>
<path d="M136.225 417.903V417.755C136.021 417.986 135.827 418.171 135.624 418.319C135.429 418.467 135.217 418.578 134.985 418.652C134.754 418.726 134.504 418.763 134.236 418.763C133.875 418.763 133.542 418.689 133.237 418.532C132.931 418.374 132.663 418.162 132.441 417.875C132.219 417.589 132.043 417.265 131.932 416.877C131.821 416.498 131.756 416.082 131.756 415.638C131.756 414.695 131.988 413.965 132.441 413.438C132.904 412.911 133.505 412.652 134.254 412.652C134.689 412.652 135.05 412.726 135.355 412.874C135.651 413.022 135.947 413.253 136.225 413.558V411.339C136.225 411.034 136.29 410.794 136.41 410.636C136.53 410.479 136.706 410.396 136.937 410.396C137.169 410.396 137.345 410.47 137.465 410.618C137.585 410.766 137.65 410.978 137.65 411.256V417.884C137.65 418.171 137.585 418.384 137.456 418.532C137.326 418.67 137.15 418.744 136.947 418.744C136.743 418.744 136.567 418.67 136.438 418.522C136.308 418.374 136.234 418.162 136.234 417.884L136.225 417.903ZM133.264 415.693C133.264 416.1 133.329 416.451 133.449 416.729C133.579 417.015 133.746 417.237 133.968 417.376C134.19 417.524 134.43 417.598 134.689 417.598C134.948 417.598 135.198 417.524 135.411 417.394C135.633 417.256 135.799 417.043 135.938 416.757C136.068 416.47 136.132 416.119 136.132 415.693C136.132 415.296 136.068 414.945 135.938 414.658C135.809 414.371 135.633 414.149 135.411 414.002C135.189 413.854 134.948 413.77 134.68 413.77C134.412 413.77 134.162 413.844 133.94 414.002C133.727 414.159 133.551 414.381 133.44 414.676C133.329 414.972 133.264 415.305 133.264 415.693Z" fill="white"/>
<path d="M142.868 416.082H139.926C139.926 416.424 140 416.72 140.13 416.988C140.259 417.247 140.444 417.441 140.666 417.579C140.888 417.709 141.138 417.774 141.406 417.774C141.582 417.774 141.749 417.755 141.897 417.709C142.045 417.663 142.193 417.598 142.331 417.515C142.47 417.422 142.6 417.33 142.72 417.228C142.84 417.126 142.988 416.988 143.183 416.812C143.257 416.747 143.368 416.71 143.516 416.71C143.673 416.71 143.793 416.757 143.886 416.84C143.978 416.923 144.034 417.043 144.034 417.2C144.034 417.339 143.978 417.496 143.877 417.672C143.766 417.857 143.608 418.033 143.395 418.199C143.183 418.365 142.914 418.504 142.581 418.615C142.257 418.726 141.887 418.781 141.462 418.781C140.5 418.781 139.741 418.504 139.204 417.959C138.668 417.413 138.399 416.664 138.399 415.721C138.399 415.278 138.464 414.861 138.594 414.482C138.723 414.103 138.918 413.78 139.167 413.502C139.417 413.234 139.732 413.022 140.102 412.874C140.472 412.726 140.888 412.661 141.332 412.661C141.915 412.661 142.424 412.781 142.84 413.031C143.266 413.281 143.58 413.595 143.784 413.992C143.997 414.381 144.099 414.788 144.099 415.194C144.099 415.573 143.988 415.814 143.775 415.934C143.562 416.045 143.247 416.1 142.859 416.1L142.868 416.082ZM139.926 415.231H142.655C142.618 414.714 142.48 414.335 142.239 414.076C141.998 413.817 141.684 413.697 141.286 413.697C140.888 413.697 140.601 413.826 140.361 414.085C140.12 414.344 139.972 414.732 139.926 415.231Z" fill="white"/>
<path d="M149.724 416.803C149.724 417.219 149.622 417.57 149.418 417.866C149.215 418.162 148.919 418.384 148.521 418.541C148.123 418.689 147.642 418.772 147.078 418.772C146.513 418.772 146.078 418.689 145.69 418.522C145.301 418.356 145.024 418.153 144.839 417.903C144.654 417.653 144.561 417.404 144.561 417.154C144.561 416.988 144.617 416.849 144.737 416.729C144.857 416.609 145.005 416.553 145.181 416.553C145.338 416.553 145.458 416.59 145.542 416.664C145.625 416.738 145.708 416.849 145.782 416.988C145.94 417.256 146.125 417.459 146.337 417.589C146.55 417.718 146.846 417.783 147.216 417.783C147.522 417.783 147.762 417.718 147.956 417.579C148.151 417.441 148.243 417.293 148.243 417.117C148.243 416.849 148.142 416.664 147.938 416.544C147.734 416.424 147.411 416.304 146.948 416.193C146.43 416.063 146.004 415.925 145.681 415.786C145.357 415.647 145.098 415.462 144.903 415.231C144.709 415 144.607 414.713 144.607 414.381C144.607 414.076 144.7 413.798 144.876 413.53C145.061 413.262 145.32 413.049 145.671 412.883C146.023 412.726 146.448 412.643 146.939 412.643C147.327 412.643 147.679 412.68 147.984 412.763C148.299 412.846 148.558 412.957 148.761 413.086C148.965 413.225 149.122 413.373 149.233 413.539C149.344 413.706 149.4 413.863 149.4 414.029C149.4 414.205 149.344 414.344 149.224 414.455C149.113 414.566 148.946 414.621 148.734 414.621C148.576 414.621 148.447 414.575 148.336 414.492C148.225 414.408 148.105 414.27 147.966 414.094C147.855 413.946 147.716 413.826 147.568 413.743C147.42 413.66 147.207 413.613 146.939 413.613C146.67 413.613 146.439 413.669 146.263 413.789C146.088 413.9 145.995 414.048 145.995 414.223C145.995 414.381 146.06 414.51 146.189 414.612C146.319 414.713 146.504 414.797 146.726 414.861C146.948 414.926 147.253 415.009 147.651 415.102C148.114 415.213 148.502 415.351 148.798 415.509C149.094 415.666 149.317 415.851 149.474 416.072C149.622 416.285 149.705 416.535 149.705 416.812L149.724 416.803Z" fill="white"/>
<path d="M151.259 411.949C151.046 411.949 150.871 411.884 150.723 411.755C150.575 411.625 150.5 411.45 150.5 411.209C150.5 410.997 150.575 410.821 150.732 410.682C150.889 410.544 151.065 410.479 151.268 410.479C151.472 410.479 151.638 410.544 151.787 410.664C151.935 410.793 152.018 410.969 152.018 411.209C152.018 411.45 151.944 411.625 151.796 411.755C151.648 411.884 151.472 411.949 151.278 411.949H151.259ZM151.999 413.502V417.847C151.999 418.152 151.925 418.374 151.787 418.531C151.638 418.689 151.463 418.763 151.241 418.763C151.019 418.763 150.843 418.679 150.704 418.522C150.565 418.365 150.5 418.134 150.5 417.847V413.548C150.5 413.253 150.565 413.031 150.704 412.873C150.843 412.726 151.019 412.642 151.241 412.642C151.463 412.642 151.638 412.716 151.787 412.873C151.925 413.021 151.999 413.234 151.999 413.502Z" fill="white"/>
<path d="M158.596 413.752V418.116C158.596 418.615 158.541 419.049 158.439 419.401C158.337 419.761 158.161 420.057 157.93 420.288C157.699 420.519 157.384 420.695 157.005 420.815C156.625 420.926 156.154 420.991 155.58 420.991C155.062 420.991 154.599 420.917 154.192 420.769C153.785 420.621 153.471 420.436 153.249 420.205C153.026 419.974 152.915 419.743 152.915 419.493C152.915 419.308 152.98 419.16 153.101 419.04C153.221 418.929 153.378 418.864 153.554 418.864C153.776 418.864 153.97 418.966 154.127 419.16C154.211 419.262 154.294 419.354 154.377 419.456C154.461 419.558 154.562 419.641 154.664 419.715C154.766 419.789 154.895 419.835 155.043 419.872C155.191 419.909 155.358 419.928 155.552 419.928C155.941 419.928 156.246 419.872 156.459 419.761C156.672 419.65 156.829 419.502 156.912 419.308C156.996 419.114 157.051 418.901 157.07 418.679C157.088 418.458 157.097 418.097 157.107 417.607C156.875 417.931 156.607 418.18 156.302 418.347C155.996 418.513 155.636 418.596 155.219 418.596C154.72 418.596 154.276 418.467 153.896 418.208C153.517 417.949 153.23 417.589 153.026 417.126C152.823 416.664 152.721 416.128 152.721 415.527C152.721 415.074 152.786 414.667 152.906 414.307C153.027 413.946 153.202 413.641 153.434 413.391C153.665 413.142 153.924 412.957 154.22 412.827C154.516 412.698 154.84 412.633 155.201 412.633C155.626 412.633 155.996 412.716 156.311 412.874C156.625 413.04 156.912 413.299 157.181 413.641V413.438C157.181 413.179 157.245 412.975 157.375 412.827C157.504 412.689 157.671 412.615 157.874 412.615C158.161 412.615 158.356 412.707 158.448 412.901C158.541 413.086 158.596 413.364 158.596 413.715V413.752ZM154.239 415.656C154.239 416.267 154.368 416.729 154.636 417.043C154.905 417.357 155.247 417.515 155.673 417.515C155.922 417.515 156.163 417.45 156.385 417.311C156.607 417.182 156.792 416.978 156.931 416.71C157.07 416.442 157.144 416.109 157.144 415.73C157.144 415.12 157.005 414.639 156.737 414.297C156.468 413.955 156.107 413.789 155.673 413.789C155.238 413.789 154.895 413.955 154.636 414.279C154.377 414.602 154.248 415.074 154.248 415.675L154.239 415.656Z" fill="white"/>
<path d="M160.992 413.484V413.669C161.261 413.317 161.547 413.068 161.862 412.901C162.176 412.735 162.537 412.652 162.944 412.652C163.351 412.652 163.694 412.735 164.008 412.911C164.323 413.086 164.554 413.327 164.712 413.641C164.813 413.826 164.878 414.02 164.906 414.233C164.934 414.445 164.952 414.723 164.952 415.046V417.848C164.952 418.153 164.878 418.374 164.749 418.532C164.61 418.689 164.434 418.763 164.212 418.763C163.99 418.763 163.805 418.68 163.666 418.522C163.527 418.365 163.453 418.134 163.453 417.848V415.342C163.453 414.843 163.379 414.464 163.25 414.205C163.111 413.946 162.833 413.807 162.426 413.807C162.158 413.807 161.917 413.891 161.695 414.048C161.473 414.205 161.316 414.427 161.214 414.704C161.14 414.926 161.103 415.342 161.103 415.962V417.848C161.103 418.153 161.029 418.384 160.89 418.532C160.752 418.68 160.567 418.763 160.345 418.763C160.123 418.763 159.947 418.68 159.808 418.522C159.669 418.365 159.595 418.134 159.595 417.848V413.502C159.595 413.216 159.66 413.003 159.78 412.855C159.901 412.717 160.076 412.643 160.289 412.643C160.419 412.643 160.539 412.68 160.65 412.735C160.752 412.8 160.844 412.892 160.909 413.012C160.974 413.133 161.002 413.29 161.002 413.465L160.992 413.484Z" fill="white"/>
<path d="M170.142 416.082H167.2C167.2 416.424 167.274 416.72 167.404 416.988C167.543 417.247 167.718 417.441 167.941 417.579C168.163 417.709 168.403 417.774 168.671 417.774C168.847 417.774 169.014 417.755 169.162 417.709C169.31 417.663 169.458 417.598 169.597 417.515C169.735 417.422 169.865 417.33 169.985 417.228C170.105 417.126 170.254 416.988 170.439 416.812C170.513 416.747 170.624 416.71 170.772 416.71C170.929 416.71 171.049 416.757 171.151 416.84C171.243 416.923 171.299 417.043 171.299 417.2C171.299 417.339 171.243 417.496 171.142 417.672C171.031 417.857 170.873 418.033 170.661 418.199C170.448 418.365 170.179 418.504 169.846 418.615C169.523 418.726 169.143 418.781 168.727 418.781C167.765 418.781 167.006 418.504 166.469 417.959C165.933 417.404 165.665 416.664 165.665 415.721C165.665 415.278 165.729 414.861 165.859 414.482C165.988 414.103 166.183 413.78 166.442 413.502C166.692 413.234 167.006 413.022 167.376 412.874C167.746 412.726 168.163 412.661 168.616 412.661C169.199 412.661 169.708 412.781 170.124 413.031C170.54 413.281 170.864 413.595 171.068 413.992C171.28 414.381 171.382 414.788 171.382 415.194C171.382 415.573 171.271 415.814 171.058 415.934C170.846 416.045 170.54 416.1 170.142 416.1V416.082ZM167.2 415.231H169.93C169.893 414.714 169.754 414.335 169.513 414.076C169.273 413.817 168.958 413.697 168.56 413.697C168.163 413.697 167.876 413.826 167.635 414.085C167.395 414.344 167.247 414.732 167.2 415.231Z" fill="white"/>
<path d="M176.276 417.903V417.755C176.073 417.986 175.878 418.171 175.675 418.319C175.481 418.467 175.268 418.578 175.037 418.652C174.805 418.726 174.555 418.763 174.287 418.763C173.926 418.763 173.593 418.689 173.288 418.532C172.983 418.374 172.714 418.162 172.492 417.875C172.27 417.589 172.094 417.265 171.983 416.877C171.863 416.498 171.808 416.082 171.808 415.638C171.808 414.695 172.039 413.965 172.492 413.438C172.955 412.911 173.556 412.652 174.306 412.652C174.74 412.652 175.101 412.726 175.407 412.874C175.703 413.022 175.999 413.253 176.276 413.558V411.339C176.276 411.034 176.341 410.794 176.461 410.636C176.582 410.479 176.757 410.396 176.989 410.396C177.22 410.396 177.396 410.47 177.516 410.618C177.636 410.766 177.701 410.978 177.701 411.256V417.884C177.701 418.171 177.636 418.384 177.507 418.532C177.377 418.67 177.201 418.744 176.998 418.744C176.794 418.744 176.619 418.67 176.489 418.522C176.35 418.374 176.286 418.162 176.286 417.884L176.276 417.903ZM173.316 415.693C173.316 416.1 173.38 416.451 173.51 416.729C173.639 417.015 173.815 417.237 174.028 417.376C174.25 417.524 174.491 417.598 174.75 417.598C175.009 417.598 175.259 417.524 175.471 417.394C175.693 417.256 175.869 417.043 175.999 416.757C176.128 416.47 176.193 416.119 176.193 415.693C176.193 415.296 176.128 414.945 175.999 414.658C175.869 414.371 175.693 414.149 175.471 414.002C175.249 413.854 175.009 413.77 174.74 413.77C174.472 413.77 174.222 413.844 174 414.002C173.788 414.159 173.612 414.381 173.491 414.676C173.371 414.972 173.316 415.305 173.316 415.693Z" fill="white"/>
<path d="M182.429 411.274V413.567C182.716 413.271 183.003 413.049 183.299 412.892C183.595 412.735 183.956 412.661 184.391 412.661C184.89 412.661 185.325 412.781 185.704 413.012C186.084 413.253 186.371 413.595 186.583 414.048C186.796 414.501 186.898 415.028 186.898 415.647C186.898 416.1 186.842 416.516 186.722 416.895C186.602 417.274 186.435 417.607 186.223 417.885C186 418.162 185.732 418.384 185.418 418.532C185.103 418.68 184.761 418.763 184.381 418.763C184.15 418.763 183.928 418.735 183.725 418.68C183.521 418.624 183.345 418.55 183.206 418.467C183.068 418.375 182.938 418.282 182.846 418.19C182.744 418.097 182.614 417.949 182.448 417.764V417.912C182.448 418.199 182.383 418.412 182.244 418.559C182.115 418.707 181.939 418.772 181.726 418.772C181.513 418.772 181.347 418.698 181.217 418.559C181.088 418.412 181.023 418.199 181.023 417.912V411.348C181.023 411.043 181.088 410.812 181.208 410.655C181.328 410.498 181.504 410.424 181.726 410.424C181.957 410.424 182.133 410.498 182.263 410.646C182.383 410.794 182.448 411.006 182.448 411.284L182.429 411.274ZM182.503 415.74C182.503 416.341 182.642 416.794 182.91 417.117C183.188 417.441 183.539 417.598 183.984 417.598C184.363 417.598 184.687 417.432 184.964 417.099C185.242 416.766 185.371 416.304 185.371 415.684C185.371 415.287 185.316 414.945 185.205 414.658C185.094 414.371 184.927 414.15 184.724 413.992C184.511 413.835 184.27 413.761 183.993 413.761C183.715 413.761 183.447 413.835 183.225 413.992C183.003 414.15 182.827 414.371 182.698 414.667C182.568 414.963 182.503 415.314 182.503 415.721V415.74Z" fill="white"/>
<path d="M188.841 418.957L188.979 418.624L187.129 413.965C187.018 413.697 186.962 413.502 186.962 413.382C186.962 413.253 186.999 413.133 187.064 413.022C187.129 412.911 187.222 412.827 187.342 412.754C187.453 412.689 187.573 412.652 187.703 412.652C187.915 412.652 188.082 412.726 188.193 412.855C188.304 412.994 188.396 413.188 188.489 413.447L189.766 417.145L190.978 413.706C191.07 413.428 191.163 413.207 191.237 413.049C191.311 412.892 191.394 412.781 191.477 412.735C191.561 412.68 191.681 412.652 191.847 412.652C191.958 412.652 192.07 412.68 192.171 412.744C192.273 412.809 192.356 412.883 192.412 412.994C192.467 413.096 192.495 413.207 192.495 413.317C192.477 413.382 192.458 413.484 192.421 413.613C192.384 413.743 192.347 413.872 192.301 414.002L190.339 419.133C190.173 419.586 190.006 419.937 189.84 420.196C189.683 420.455 189.46 420.649 189.201 420.787C188.933 420.926 188.572 420.991 188.128 420.991C187.684 420.991 187.36 420.945 187.138 420.852C186.916 420.75 186.805 420.584 186.805 420.325C186.805 420.15 186.861 420.02 186.962 419.928C187.064 419.835 187.222 419.789 187.425 419.789C187.508 419.789 187.582 419.798 187.666 419.826C187.758 419.844 187.841 419.863 187.915 419.863C188.091 419.863 188.221 419.835 188.322 419.789C188.424 419.743 188.508 419.65 188.591 419.521C188.665 419.401 188.757 419.207 188.859 418.966L188.841 418.957Z" fill="white"/>
<path d="M210.647 412.781H211.008V412.328C211.008 411.857 211.064 411.487 211.184 411.2C211.304 410.923 211.508 410.72 211.795 410.599C212.081 410.47 212.47 410.405 212.97 410.405C213.849 410.405 214.293 410.618 214.293 411.052C214.293 411.191 214.246 411.311 214.154 411.404C214.061 411.505 213.96 411.552 213.83 411.552C213.774 411.552 213.663 411.542 213.525 411.515C213.386 411.496 213.266 411.487 213.164 411.487C212.896 411.487 212.72 411.57 212.637 411.727C212.563 411.884 212.526 412.116 212.526 412.411V412.772H212.896C213.469 412.772 213.756 412.948 213.756 413.29C213.756 413.53 213.682 413.687 213.525 413.761C213.377 413.826 213.164 413.863 212.896 413.863H212.526V417.848C212.526 418.143 212.451 418.365 212.313 418.522C212.174 418.68 211.989 418.754 211.767 418.754C211.545 418.754 211.378 418.68 211.23 418.522C211.091 418.365 211.017 418.143 211.017 417.848V413.863H210.601C210.379 413.863 210.203 413.817 210.083 413.715C209.963 413.613 209.898 413.484 209.898 413.317C209.898 412.957 210.148 412.781 210.657 412.781" fill="white"/>
<path d="M215.579 416.59V417.848C215.579 418.153 215.505 418.384 215.366 418.532C215.218 418.689 215.042 418.763 214.82 418.763C214.598 418.763 214.422 418.689 214.284 418.532C214.145 418.374 214.071 418.153 214.071 417.848V413.66C214.071 412.985 214.311 412.643 214.802 412.643C215.051 412.643 215.237 412.717 215.348 412.883C215.459 413.049 215.523 413.271 215.533 413.586C215.708 413.271 215.893 413.04 216.088 412.883C216.282 412.726 216.532 412.643 216.846 412.643C217.161 412.643 217.466 412.717 217.762 412.883C218.058 413.04 218.206 413.253 218.206 413.512C218.206 413.697 218.142 413.844 218.021 413.965C217.892 414.085 217.762 414.15 217.614 414.15C217.559 414.15 217.42 414.113 217.207 414.048C216.994 413.983 216.809 413.946 216.652 413.946C216.43 413.946 216.254 414.002 216.115 414.122C215.977 414.242 215.866 414.408 215.782 414.64C215.708 414.871 215.653 415.139 215.625 415.453C215.597 415.767 215.588 416.146 215.588 416.599" fill="white"/>
<path d="M222.49 416.082H219.548C219.548 416.424 219.622 416.729 219.751 416.988C219.89 417.247 220.066 417.441 220.288 417.579C220.51 417.709 220.75 417.774 221.028 417.774C221.204 417.774 221.37 417.755 221.518 417.709C221.666 417.672 221.814 417.598 221.953 417.515C222.092 417.422 222.221 417.33 222.342 417.228C222.462 417.126 222.61 416.988 222.804 416.812C222.878 416.747 222.989 416.71 223.137 416.71C223.295 416.71 223.415 416.757 223.517 416.84C223.609 416.923 223.655 417.043 223.655 417.2C223.655 417.339 223.609 417.496 223.498 417.672C223.387 417.857 223.23 418.032 223.017 418.199C222.804 418.365 222.527 418.504 222.203 418.615C221.879 418.726 221.5 418.781 221.083 418.781C220.112 418.781 219.363 418.504 218.826 417.958C218.289 417.404 218.021 416.655 218.021 415.712C218.021 415.268 218.086 414.852 218.225 414.473C218.354 414.094 218.548 413.771 218.798 413.493C219.048 413.216 219.363 413.012 219.733 412.864C220.103 412.717 220.519 412.652 220.972 412.652C221.555 412.652 222.064 412.772 222.48 413.022C222.906 413.271 223.221 413.586 223.424 413.983C223.637 414.381 223.739 414.778 223.739 415.185C223.739 415.564 223.628 415.804 223.415 415.915C223.202 416.026 222.897 416.082 222.499 416.082M219.557 415.222H222.286C222.249 414.713 222.11 414.325 221.87 414.066C221.629 413.807 221.315 413.687 220.917 413.687C220.547 413.687 220.232 413.817 219.992 414.076C219.751 414.334 219.603 414.713 219.557 415.222Z" fill="white"/>
<path d="M228.753 416.082H225.811C225.811 416.424 225.885 416.729 226.015 416.988C226.154 417.247 226.329 417.441 226.551 417.579C226.773 417.709 227.023 417.774 227.292 417.774C227.467 417.774 227.634 417.755 227.782 417.709C227.93 417.672 228.078 417.598 228.217 417.515C228.355 417.422 228.485 417.33 228.605 417.228C228.716 417.126 228.874 416.988 229.059 416.812C229.142 416.747 229.244 416.71 229.392 416.71C229.549 416.71 229.669 416.757 229.771 416.84C229.864 416.923 229.91 417.043 229.91 417.2C229.91 417.339 229.864 417.496 229.753 417.672C229.651 417.857 229.484 418.032 229.271 418.199C229.059 418.365 228.781 418.504 228.457 418.615C228.133 418.726 227.754 418.781 227.338 418.781C226.366 418.781 225.617 418.504 225.08 417.958C224.544 417.404 224.275 416.655 224.275 415.712C224.275 415.268 224.34 414.852 224.479 414.473C224.608 414.094 224.803 413.771 225.053 413.493C225.302 413.216 225.617 413.012 225.987 412.864C226.357 412.717 226.773 412.652 227.227 412.652C227.81 412.652 228.318 412.772 228.744 413.022C229.16 413.271 229.475 413.586 229.688 413.983C229.901 414.381 230.002 414.778 230.002 415.185C230.002 415.564 229.891 415.804 229.679 415.915C229.466 416.026 229.16 416.082 228.763 416.082M225.82 415.222H228.55C228.513 414.713 228.374 414.325 228.133 414.066C227.893 413.807 227.578 413.687 227.18 413.687C226.81 413.687 226.496 413.817 226.255 414.076C226.015 414.334 225.867 414.713 225.82 415.222Z" fill="white"/>
<path d="M232.047 413.493V413.669C232.334 413.317 232.621 413.068 232.935 412.901C233.24 412.735 233.583 412.652 233.971 412.652C234.434 412.652 234.86 412.772 235.248 413.012C235.637 413.253 235.942 413.604 236.173 414.057C236.395 414.519 236.516 415.065 236.516 415.693C236.516 416.156 236.451 416.581 236.321 416.969C236.192 417.358 236.007 417.681 235.785 417.94C235.553 418.199 235.285 418.402 234.98 418.55C234.665 418.689 234.332 418.763 233.981 418.763C233.555 418.763 233.185 418.68 232.898 418.504C232.611 418.337 232.324 418.079 232.065 417.746V420.002C232.065 420.658 231.825 420.991 231.344 420.991C231.057 420.991 230.872 420.908 230.779 420.732C230.687 420.556 230.641 420.307 230.641 419.983V413.493C230.641 413.207 230.705 412.994 230.826 412.846C230.946 412.707 231.122 412.633 231.335 412.633C231.547 412.633 231.723 412.707 231.853 412.846C231.991 412.994 232.056 413.197 232.056 413.475M235.008 415.656C235.008 415.259 234.943 414.917 234.822 414.63C234.702 414.344 234.536 414.131 234.323 413.974C234.11 413.826 233.87 413.743 233.61 413.743C233.194 413.743 232.843 413.909 232.565 414.233C232.278 414.566 232.139 415.046 232.139 415.675C232.139 416.267 232.278 416.738 232.565 417.071C232.852 417.404 233.194 417.57 233.62 417.57C233.87 417.57 234.101 417.496 234.314 417.358C234.526 417.21 234.702 416.997 234.822 416.701C234.952 416.415 235.017 416.054 235.017 415.647" fill="white"/>
<path d="M238.033 411.949C237.82 411.949 237.644 411.884 237.496 411.755C237.348 411.625 237.274 411.45 237.274 411.209C237.274 410.997 237.348 410.821 237.506 410.682C237.654 410.544 237.839 410.479 238.033 410.479C238.227 410.479 238.403 410.544 238.551 410.664C238.699 410.793 238.773 410.969 238.773 411.209C238.773 411.45 238.699 411.625 238.551 411.755C238.403 411.884 238.227 411.949 238.024 411.949M238.764 413.502V417.857C238.764 418.152 238.69 418.384 238.551 418.541C238.403 418.698 238.227 418.772 238.005 418.772C237.783 418.772 237.607 418.698 237.469 418.541C237.33 418.384 237.265 418.152 237.265 417.866V413.558C237.265 413.262 237.339 413.04 237.469 412.892C237.607 412.735 237.783 412.661 238.005 412.661C238.227 412.661 238.403 412.735 238.551 412.892C238.69 413.04 238.764 413.253 238.764 413.521" fill="white"/>
<path d="M243.631 418.079L242.308 415.897L241.493 416.664V417.866C241.493 418.153 241.419 418.375 241.262 418.532C241.114 418.689 240.929 418.763 240.735 418.763C240.503 418.763 240.318 418.689 240.189 418.532C240.059 418.375 239.985 418.153 239.985 417.848V411.432C239.985 411.099 240.05 410.849 240.18 410.673C240.309 410.498 240.494 410.415 240.735 410.415C240.975 410.415 241.151 410.498 241.29 410.655C241.429 410.812 241.493 411.043 241.493 411.348V415L243.187 413.225C243.399 413.003 243.557 412.855 243.668 412.772C243.779 412.689 243.908 412.652 244.065 412.652C244.25 412.652 244.408 412.707 244.537 412.828C244.658 412.948 244.722 413.096 244.722 413.271C244.722 413.493 244.519 413.789 244.112 414.15L243.316 414.88L244.861 417.302C244.972 417.487 245.055 417.616 245.111 417.709C245.157 417.801 245.185 417.894 245.185 417.977C245.185 418.217 245.12 418.402 244.991 418.541C244.861 418.68 244.685 418.744 244.473 418.744C244.287 418.744 244.149 418.698 244.047 418.596C243.945 418.495 243.816 418.319 243.64 418.06" fill="white"/>
<path d="M246.896 418.763C246.665 418.763 246.471 418.689 246.304 418.541C246.137 418.393 246.054 418.19 246.054 417.921C246.054 417.7 246.137 417.505 246.295 417.348C246.452 417.182 246.646 417.108 246.878 417.108C247.109 417.108 247.303 417.191 247.47 417.348C247.636 417.505 247.72 417.7 247.72 417.931C247.72 418.19 247.636 418.402 247.47 418.541C247.303 418.689 247.109 418.763 246.896 418.763Z" fill="white"/>
<path d="M254.381 416.905C254.381 417.089 254.326 417.293 254.215 417.505C254.104 417.718 253.937 417.921 253.706 418.116C253.475 418.31 253.188 418.467 252.836 418.578C252.485 418.698 252.096 418.754 251.652 418.754C250.718 418.754 249.996 418.485 249.469 417.94C248.95 417.395 248.691 416.673 248.691 415.758C248.691 415.139 248.812 414.593 249.052 414.122C249.293 413.65 249.635 413.28 250.088 413.022C250.542 412.763 251.088 412.633 251.708 412.633C252.096 412.633 252.457 412.689 252.781 412.809C253.105 412.92 253.382 413.068 253.604 413.243C253.826 413.428 254.002 413.613 254.122 413.817C254.243 414.02 254.298 414.214 254.298 414.39C254.298 414.566 254.233 414.723 254.104 414.843C253.965 414.963 253.808 415.028 253.613 415.028C253.484 415.028 253.382 414.991 253.299 414.935C253.216 414.871 253.123 414.769 253.021 414.621C252.836 414.344 252.642 414.131 252.448 413.992C252.253 413.854 251.994 413.78 251.689 413.78C251.245 413.78 250.884 413.955 250.616 414.297C250.348 414.639 250.209 415.12 250.209 415.721C250.209 416.008 250.246 416.267 250.31 416.507C250.375 416.747 250.477 416.941 250.616 417.117C250.745 417.284 250.912 417.413 251.097 417.496C251.282 417.589 251.495 417.626 251.717 417.626C252.022 417.626 252.281 417.561 252.494 417.413C252.716 417.274 252.901 417.062 253.068 416.775C253.16 416.609 253.262 416.479 253.364 416.378C253.475 416.285 253.604 416.23 253.752 416.23C253.937 416.23 254.095 416.304 254.206 416.442C254.326 416.581 254.391 416.729 254.391 416.886" fill="white"/>
<path d="M260.876 415.712C260.876 416.156 260.802 416.572 260.673 416.951C260.534 417.33 260.33 417.653 260.062 417.922C259.794 418.19 259.479 418.402 259.118 418.55C258.748 418.689 258.332 418.763 257.879 418.763C257.425 418.763 257.009 418.689 256.648 418.541C256.287 418.393 255.963 418.19 255.704 417.912C255.436 417.635 255.232 417.311 255.094 416.942C254.964 416.572 254.89 416.156 254.89 415.703C254.89 415.25 254.964 414.834 255.094 414.455C255.232 414.076 255.436 413.752 255.695 413.484C255.954 413.216 256.269 413.012 256.639 412.864C257.009 412.717 257.425 412.652 257.869 412.652C258.313 412.652 258.739 412.726 259.109 412.874C259.479 413.022 259.794 413.225 260.062 413.502C260.33 413.78 260.525 414.103 260.663 414.473C260.802 414.852 260.867 415.259 260.867 415.712M259.359 415.712C259.359 415.102 259.22 414.621 258.952 414.279C258.683 413.937 258.323 413.761 257.86 413.761C257.564 413.761 257.305 413.835 257.083 413.992C256.861 414.14 256.685 414.371 256.565 414.667C256.444 414.963 256.38 415.314 256.38 415.712C256.38 416.109 256.435 416.452 256.565 416.738C256.685 417.034 256.852 417.256 257.074 417.413C257.296 417.57 257.564 417.644 257.86 417.644C258.313 417.644 258.674 417.469 258.952 417.126C259.22 416.784 259.359 416.313 259.359 415.703" fill="white"/>
<path d="M266.621 415.823V417.82C266.621 418.134 266.547 418.375 266.408 418.532C266.26 418.689 266.075 418.772 265.844 418.772C265.613 418.772 265.428 418.689 265.289 418.532C265.141 418.375 265.076 418.134 265.076 417.82V415.425C265.076 415.046 265.067 414.75 265.039 414.538C265.011 414.334 264.937 414.159 264.826 414.029C264.715 413.891 264.53 413.826 264.29 413.826C263.799 413.826 263.476 413.992 263.318 414.334C263.161 414.667 263.078 415.148 263.078 415.786V417.82C263.078 418.134 263.004 418.365 262.865 418.532C262.717 418.689 262.532 418.772 262.301 418.772C262.069 418.772 261.884 418.689 261.736 418.532C261.588 418.375 261.514 418.134 261.514 417.82V413.521C261.514 413.234 261.579 413.022 261.708 412.874C261.838 412.726 262.014 412.652 262.227 412.652C262.439 412.652 262.606 412.726 262.745 412.855C262.883 412.994 262.948 413.188 262.948 413.428V413.567C263.207 413.253 263.494 413.031 263.79 412.883C264.086 412.735 264.419 412.661 264.78 412.661C265.141 412.661 265.483 412.735 265.752 412.883C266.02 413.031 266.251 413.262 266.427 413.567C266.686 413.262 266.954 413.031 267.241 412.883C267.528 412.735 267.852 412.661 268.203 412.661C268.61 412.661 268.971 412.744 269.267 412.901C269.563 413.068 269.785 413.299 269.933 413.595C270.063 413.872 270.128 414.297 270.128 414.88V417.82C270.128 418.134 270.054 418.375 269.915 418.532C269.776 418.689 269.582 418.772 269.341 418.772C269.101 418.772 268.925 418.689 268.777 418.532C268.629 418.375 268.564 418.134 268.564 417.82V415.287C268.564 414.963 268.546 414.704 268.527 414.51C268.499 414.316 268.425 414.15 268.305 414.02C268.185 413.891 268 413.826 267.75 413.826C267.556 413.826 267.361 413.891 267.186 414.002C267.01 414.113 266.871 414.279 266.769 414.473C266.658 414.732 266.603 415.176 266.603 415.823" fill="white"/>
<path d="M196.64 415.823C196.612 415.684 196.584 415.545 196.575 415.416C196.594 415.545 196.612 415.684 196.64 415.823Z" fill="white"/>
<path d="M197.131 417.219C197.131 417.219 197.131 417.21 197.121 417.2C197.121 417.2 197.121 417.219 197.131 417.219Z" fill="white"/>
<path d="M197.084 417.126C197.084 417.126 197.056 417.071 197.047 417.052C197.056 417.08 197.075 417.098 197.084 417.126Z" fill="white"/>
<path d="M196.779 416.359C196.853 416.59 196.945 416.812 197.047 417.034C196.945 416.812 196.853 416.59 196.788 416.359H196.779Z" fill="white"/>
<path d="M202.386 409.582C202.672 409.582 202.894 409.61 203.135 409.647L203.209 409.203C203.209 409.203 202.534 408.991 201.636 409.065L201.562 408.824C201.84 408.769 202.053 408.519 202.053 408.223C202.053 407.881 201.775 407.613 201.442 407.613C201.109 407.613 200.831 407.881 200.831 408.223C200.831 408.519 201.044 408.769 201.312 408.824L201.386 409.092C200.433 409.222 199.684 409.592 199.684 409.592L199.814 409.999C200.387 409.804 200.887 409.693 201.34 409.647C201.784 409.601 202.117 409.582 202.386 409.582Z" fill="white"/>
<path d="M197.121 411.82C197.121 411.82 197.167 411.764 197.186 411.737L197.001 411.607L196.714 411.404C196.714 411.404 196.251 411.838 195.9 412.596C195.881 412.569 195.863 412.55 195.844 412.532C195.743 412.421 195.595 412.356 195.4 412.356C195.289 412.356 195.206 412.319 195.15 412.273C195.206 412.208 195.234 412.125 195.234 412.032C195.234 411.82 195.058 411.644 194.845 411.644C194.632 411.644 194.457 411.82 194.457 412.032C194.457 412.245 194.632 412.421 194.845 412.421C194.882 412.421 194.91 412.421 194.947 412.412C195.039 412.522 195.197 412.606 195.419 412.606C195.53 412.606 195.613 412.633 195.669 412.698C195.733 412.772 195.752 412.874 195.761 412.948C195.511 413.641 195.576 414.492 195.576 414.492L196.187 414.519C196.196 414.205 196.242 413.66 196.399 413.225C196.705 412.384 197.084 411.857 197.103 411.838L197.121 411.82Z" fill="white"/>
<path d="M207.724 410.091C207.511 410.091 207.335 410.266 207.335 410.479C207.335 410.516 207.335 410.544 207.354 410.572C207.243 410.664 207.159 410.821 207.159 411.043C207.159 411.154 207.132 411.237 207.067 411.293C207.021 411.339 206.956 411.357 206.891 411.376C206.438 410.738 205.873 410.34 205.873 410.34L205.429 410.812C205.762 411.117 206.105 411.496 206.428 411.968C206.66 412.291 206.891 412.716 207.085 413.132L207.677 412.855C207.677 412.855 207.409 412.189 207.021 411.579C207.085 411.551 207.15 411.524 207.215 411.468C207.326 411.367 207.391 411.219 207.381 411.034C207.381 410.914 207.418 410.83 207.465 410.775C207.529 410.821 207.613 410.858 207.705 410.858C207.918 410.858 208.094 410.682 208.094 410.47C208.094 410.257 207.918 410.082 207.705 410.082L207.724 410.091Z" fill="white"/>
<path d="M206.179 415.434C205.365 415.832 204.014 416.359 202.247 416.609C201.553 416.71 200.877 416.738 200.258 416.738C199.453 416.738 198.74 416.673 198.185 416.609C197.565 416.525 197.075 416.433 196.77 416.368C196.844 416.599 196.927 416.821 197.029 417.043C197.029 417.043 197.029 417.052 197.029 417.061C197.038 417.089 197.056 417.108 197.066 417.135C197.075 417.163 197.093 417.182 197.103 417.209C197.103 417.209 197.103 417.228 197.112 417.228C197.288 417.561 197.5 417.866 197.741 418.125C198.574 419.04 199.425 419.179 199.434 419.188H199.443H199.453C199.453 419.188 200.211 419.437 201.368 419.437C202.524 419.437 203.607 419.206 204.661 418.763C205.448 418.365 206.179 417.755 206.549 417.219C206.836 416.793 207.039 416.35 207.159 415.887C207.224 415.638 207.27 415.24 207.243 414.824C207.011 414.981 206.651 415.203 206.151 415.444L206.179 415.434Z" fill="white"/>
<path d="M197.389 412.014C197.389 412.014 197.01 412.55 196.732 413.318C196.52 413.891 196.529 414.732 196.529 414.741C196.529 414.945 196.538 415.139 196.566 415.333C196.566 415.333 196.566 415.333 196.566 415.342C196.566 415.37 196.566 415.389 196.566 415.416C196.584 415.546 196.603 415.684 196.631 415.823C197.038 415.925 199.462 416.489 202.173 416.11C203.875 415.869 205.161 415.37 205.947 414.991C206.604 414.677 207.021 414.39 207.178 414.27C207.011 413.669 206.576 412.735 206.169 412.153C205.004 410.489 203.745 410.063 203.107 409.962C202.857 409.925 202.663 409.897 202.385 409.897C202.126 409.897 201.802 409.915 201.377 409.962C200.942 410.008 200.461 410.119 199.906 410.304C199.119 410.563 198.416 410.979 197.861 411.496L197.843 411.515C197.759 411.589 197.584 411.746 197.389 412.005V412.014ZM204.513 411.626C205.068 411.626 205.522 412.079 205.522 412.633C205.522 413.188 205.068 413.65 204.513 413.65C203.958 413.65 203.505 413.197 203.505 412.633C203.505 412.07 203.958 411.626 204.513 411.626ZM199.73 411.589C200.637 411.589 201.368 412.319 201.368 413.225C201.368 414.131 200.637 414.862 199.73 414.862C198.823 414.862 198.092 414.131 198.092 413.225C198.092 412.319 198.823 411.589 199.73 411.589Z" fill="white"/>
</g>
<defs>
<linearGradient id="paint0_linear_55_2391" x1="237.552" y1="195.486" x2="237.552" y2="159.643" gradientUnits="userSpaceOnUse">
<stop stop-color="#36FCFE" stop-opacity="0.99"/>
<stop offset="0.12" stop-color="#29C8EF" stop-opacity="0.76"/>
<stop offset="0.25" stop-color="#1E99E1" stop-opacity="0.56"/>
<stop offset="0.37" stop-color="#1572D6" stop-opacity="0.39"/>
<stop offset="0.5" stop-color="#0D52CD" stop-opacity="0.25"/>
<stop offset="0.62" stop-color="#0739C6" stop-opacity="0.14"/>
<stop offset="0.75" stop-color="#0328C1" stop-opacity="0.06"/>
<stop offset="0.87" stop-color="#001DBE" stop-opacity="0.02"/>
<stop offset="1" stop-color="#001ABD" stop-opacity="0"/>
</linearGradient>
<linearGradient id="paint1_linear_55_2391" x1="131.852" y1="259.313" x2="131.852" y2="147.577" gradientUnits="userSpaceOnUse">
<stop stop-color="#36FCFE" stop-opacity="0.99"/>
<stop offset="0.12" stop-color="#29C8EF" stop-opacity="0.76"/>
<stop offset="0.25" stop-color="#1E99E1" stop-opacity="0.56"/>
<stop offset="0.37" stop-color="#1572D6" stop-opacity="0.39"/>
<stop offset="0.5" stop-color="#0D52CD" stop-opacity="0.25"/>
<stop offset="0.62" stop-color="#0739C6" stop-opacity="0.14"/>
<stop offset="0.75" stop-color="#0328C1" stop-opacity="0.06"/>
<stop offset="0.87" stop-color="#001DBE" stop-opacity="0.02"/>
<stop offset="1" stop-color="#001ABD" stop-opacity="0"/>
</linearGradient>
<linearGradient id="paint2_linear_55_2391" x1="147.096" y1="163.125" x2="147.096" y2="50.8816" gradientUnits="userSpaceOnUse">
<stop stop-color="#36FCFE" stop-opacity="0.99"/>
<stop offset="0.12" stop-color="#29C8EF" stop-opacity="0.76"/>
<stop offset="0.25" stop-color="#1E99E1" stop-opacity="0.56"/>
<stop offset="0.37" stop-color="#1572D6" stop-opacity="0.39"/>
<stop offset="0.5" stop-color="#0D52CD" stop-opacity="0.25"/>
<stop offset="0.62" stop-color="#0739C6" stop-opacity="0.14"/>
<stop offset="0.75" stop-color="#0328C1" stop-opacity="0.06"/>
<stop offset="0.87" stop-color="#001DBE" stop-opacity="0.02"/>
<stop offset="1" stop-color="#001ABD" stop-opacity="0"/>
</linearGradient>
<linearGradient id="paint3_linear_55_2391" x1="253.299" y1="164.58" x2="253.299" y2="49.9231" gradientUnits="userSpaceOnUse">
<stop stop-color="#36FCFE" stop-opacity="0.99"/>
<stop offset="0.12" stop-color="#29C8EF" stop-opacity="0.76"/>
<stop offset="0.25" stop-color="#1E99E1" stop-opacity="0.56"/>
<stop offset="0.37" stop-color="#1572D6" stop-opacity="0.39"/>
<stop offset="0.5" stop-color="#0D52CD" stop-opacity="0.25"/>
<stop offset="0.62" stop-color="#0739C6" stop-opacity="0.14"/>
<stop offset="0.75" stop-color="#0328C1" stop-opacity="0.06"/>
<stop offset="0.87" stop-color="#001DBE" stop-opacity="0.02"/>
<stop offset="1" stop-color="#001ABD" stop-opacity="0"/>
</linearGradient>
<linearGradient id="paint4_linear_55_2391" x1="202.237" y1="323.761" x2="202.237" y2="207.856" gradientUnits="userSpaceOnUse">
<stop stop-color="#36FCFE" stop-opacity="0.99"/>
<stop offset="0.12" stop-color="#29C8EF" stop-opacity="0.76"/>
<stop offset="0.25" stop-color="#1E99E1" stop-opacity="0.56"/>
<stop offset="0.37" stop-color="#1572D6" stop-opacity="0.39"/>
<stop offset="0.5" stop-color="#0D52CD" stop-opacity="0.25"/>
<stop offset="0.62" stop-color="#0739C6" stop-opacity="0.14"/>
<stop offset="0.75" stop-color="#0328C1" stop-opacity="0.06"/>
<stop offset="0.87" stop-color="#001DBE" stop-opacity="0.02"/>
<stop offset="1" stop-color="#001ABD" stop-opacity="0"/>
</linearGradient>
<linearGradient id="paint5_linear_55_2391" x1="279.536" y1="259.369" x2="279.536" y2="147.523" gradientUnits="userSpaceOnUse">
<stop stop-color="#36FCFE" stop-opacity="0.99"/>
<stop offset="0.12" stop-color="#29C8EF" stop-opacity="0.76"/>
<stop offset="0.25" stop-color="#1E99E1" stop-opacity="0.56"/>
<stop offset="0.37" stop-color="#1572D6" stop-opacity="0.39"/>
<stop offset="0.5" stop-color="#0D52CD" stop-opacity="0.25"/>
<stop offset="0.62" stop-color="#0739C6" stop-opacity="0.14"/>
<stop offset="0.75" stop-color="#0328C1" stop-opacity="0.06"/>
<stop offset="0.87" stop-color="#001DBE" stop-opacity="0.02"/>
<stop offset="1" stop-color="#001ABD" stop-opacity="0"/>
</linearGradient>
<linearGradient id="paint6_linear_55_2391" x1="296.986" y1="127.775" x2="296.986" y2="66.2035" gradientUnits="userSpaceOnUse">
<stop stop-color="#36FCFE" stop-opacity="0.99"/>
<stop offset="0.12" stop-color="#29C8EF" stop-opacity="0.76"/>
<stop offset="0.25" stop-color="#1E99E1" stop-opacity="0.56"/>
<stop offset="0.37" stop-color="#1572D6" stop-opacity="0.39"/>
<stop offset="0.5" stop-color="#0D52CD" stop-opacity="0.25"/>
<stop offset="0.62" stop-color="#0739C6" stop-opacity="0.14"/>
<stop offset="0.75" stop-color="#0328C1" stop-opacity="0.06"/>
<stop offset="0.87" stop-color="#001DBE" stop-opacity="0.02"/>
<stop offset="1" stop-color="#001ABD" stop-opacity="0"/>
</linearGradient>
<linearGradient id="paint7_linear_55_2391" x1="331.338" y1="214.318" x2="331.338" y2="125.584" gradientUnits="userSpaceOnUse">
<stop stop-color="#36FCFE" stop-opacity="0.99"/>
<stop offset="0.12" stop-color="#29C8EF" stop-opacity="0.76"/>
<stop offset="0.25" stop-color="#1E99E1" stop-opacity="0.56"/>
<stop offset="0.37" stop-color="#1572D6" stop-opacity="0.39"/>
<stop offset="0.5" stop-color="#0D52CD" stop-opacity="0.25"/>
<stop offset="0.62" stop-color="#0739C6" stop-opacity="0.14"/>
<stop offset="0.75" stop-color="#0328C1" stop-opacity="0.06"/>
<stop offset="0.87" stop-color="#001DBE" stop-opacity="0.02"/>
<stop offset="1" stop-color="#001ABD" stop-opacity="0"/>
</linearGradient>
<linearGradient id="paint8_linear_55_2391" x1="208.584" y1="239.391" x2="208.584" y2="179.539" gradientUnits="userSpaceOnUse">
<stop stop-color="#36FCFE" stop-opacity="0.99"/>
<stop offset="0.12" stop-color="#29C8EF" stop-opacity="0.76"/>
<stop offset="0.25" stop-color="#1E99E1" stop-opacity="0.56"/>
<stop offset="0.37" stop-color="#1572D6" stop-opacity="0.39"/>
<stop offset="0.5" stop-color="#0D52CD" stop-opacity="0.25"/>
<stop offset="0.62" stop-color="#0739C6" stop-opacity="0.14"/>
<stop offset="0.75" stop-color="#0328C1" stop-opacity="0.06"/>
<stop offset="0.87" stop-color="#001DBE" stop-opacity="0.02"/>
<stop offset="1" stop-color="#001ABD" stop-opacity="0"/>
</linearGradient>
<linearGradient id="paint9_linear_55_2391" x1="203.819" y1="94.0405" x2="203.819" y2="32.4594" gradientUnits="userSpaceOnUse">
<stop stop-color="#36FCFE" stop-opacity="0.99"/>
<stop offset="0.12" stop-color="#29C8EF" stop-opacity="0.76"/>
<stop offset="0.25" stop-color="#1E99E1" stop-opacity="0.56"/>
<stop offset="0.37" stop-color="#1572D6" stop-opacity="0.39"/>
<stop offset="0.5" stop-color="#0D52CD" stop-opacity="0.25"/>
<stop offset="0.62" stop-color="#0739C6" stop-opacity="0.14"/>
<stop offset="0.75" stop-color="#0328C1" stop-opacity="0.06"/>
<stop offset="0.87" stop-color="#001DBE" stop-opacity="0.02"/>
<stop offset="1" stop-color="#001ABD" stop-opacity="0"/>
</linearGradient>
<linearGradient id="paint10_linear_55_2391" x1="242.936" y1="283.314" x2="242.936" y2="250.938" gradientUnits="userSpaceOnUse">
<stop stop-color="#5CFFFF"/>
<stop offset="0.08" stop-color="#51E4F7" stop-opacity="0.88"/>
<stop offset="0.28" stop-color="#38A7E5" stop-opacity="0.62"/>
<stop offset="0.46" stop-color="#2475D7" stop-opacity="0.4"/>
<stop offset="0.63" stop-color="#144DCB" stop-opacity="0.23"/>
<stop offset="0.78" stop-color="#0931C3" stop-opacity="0.1"/>
<stop offset="0.91" stop-color="#0220BE" stop-opacity="0.03"/>
<stop offset="1" stop-color="#001ABD" stop-opacity="0"/>
</linearGradient>
<linearGradient id="paint11_linear_55_2391" x1="77.5954" y1="200.395" x2="77.5954" y2="117.976" gradientUnits="userSpaceOnUse">
<stop stop-color="#36FCFE" stop-opacity="0.99"/>
<stop offset="0.12" stop-color="#29C8EF" stop-opacity="0.76"/>
<stop offset="0.25" stop-color="#1E99E1" stop-opacity="0.56"/>
<stop offset="0.37" stop-color="#1572D6" stop-opacity="0.39"/>
<stop offset="0.5" stop-color="#0D52CD" stop-opacity="0.25"/>
<stop offset="0.62" stop-color="#0739C6" stop-opacity="0.14"/>
<stop offset="0.75" stop-color="#0328C1" stop-opacity="0.06"/>
<stop offset="0.87" stop-color="#001DBE" stop-opacity="0.02"/>
<stop offset="1" stop-color="#001ABD" stop-opacity="0"/>
</linearGradient>
<linearGradient id="paint12_linear_55_2391" x1="287.16" y1="334.698" x2="287.16" y2="247.628" gradientUnits="userSpaceOnUse">
<stop stop-color="#5CFFFF"/>
<stop offset="0.08" stop-color="#51E4F7" stop-opacity="0.88"/>
<stop offset="0.28" stop-color="#38A7E5" stop-opacity="0.62"/>
<stop offset="0.46" stop-color="#2475D7" stop-opacity="0.4"/>
<stop offset="0.63" stop-color="#144DCB" stop-opacity="0.23"/>
<stop offset="0.78" stop-color="#0931C3" stop-opacity="0.1"/>
<stop offset="0.91" stop-color="#0220BE" stop-opacity="0.03"/>
<stop offset="1" stop-color="#001ABD" stop-opacity="0"/>
</linearGradient>
<linearGradient id="paint13_linear_55_2391" x1="151.259" y1="309.025" x2="151.259" y2="262.975" gradientUnits="userSpaceOnUse">
<stop stop-color="#5CFFFF"/>
<stop offset="0.08" stop-color="#51E4F7" stop-opacity="0.88"/>
<stop offset="0.28" stop-color="#38A7E5" stop-opacity="0.62"/>
<stop offset="0.46" stop-color="#2475D7" stop-opacity="0.4"/>
<stop offset="0.63" stop-color="#144DCB" stop-opacity="0.23"/>
<stop offset="0.78" stop-color="#0931C3" stop-opacity="0.1"/>
<stop offset="0.91" stop-color="#0220BE" stop-opacity="0.03"/>
<stop offset="1" stop-color="#001ABD" stop-opacity="0"/>
</linearGradient>
<linearGradient id="paint14_linear_55_2391" x1="176.462" y1="170.598" x2="176.462" y2="114.897" gradientUnits="userSpaceOnUse">
<stop stop-color="#5CFFFF"/>
<stop offset="0.08" stop-color="#51E4F7" stop-opacity="0.88"/>
<stop offset="0.28" stop-color="#38A7E5" stop-opacity="0.62"/>
<stop offset="0.46" stop-color="#2475D7" stop-opacity="0.4"/>
<stop offset="0.63" stop-color="#144DCB" stop-opacity="0.23"/>
<stop offset="0.78" stop-color="#0931C3" stop-opacity="0.1"/>
<stop offset="0.91" stop-color="#0220BE" stop-opacity="0.03"/>
<stop offset="1" stop-color="#001ABD" stop-opacity="0"/>
</linearGradient>
<clipPath id="clip0_55_2391">
<rect width="408" height="421" fill="white"/>
</clipPath>
</defs>
</svg>
