<svg width="18" height="18" viewBox="0 0 18 18" fill="none" xmlns="http://www.w3.org/2000/svg">
<g id="icons8-facebook">
<mask id="mask0_9_1926" style="mask-type:luminance" maskUnits="userSpaceOnUse" x="0" y="0" width="18" height="18">
<rect id="Background" width="18" height="18" fill="white"/>
</mask>
<g mask="url(#mask0_9_1926)">
<path id="Shape" fill-rule="evenodd" clip-rule="evenodd" d="M9 1.875C5.06498 1.875 1.87501 5.06496 1.875 8.99998C1.87499 12.935 5.06494 16.125 8.99997 16.125C12.935 16.125 16.125 12.9351 16.125 9.00003C16.125 5.06501 12.9351 1.87503 9.00003 1.875H9Z" fill="#039BE5"/>
<path id="Shape_2" fill-rule="evenodd" clip-rule="evenodd" d="M9.96451 10.8884H11.8084L12.0979 9.01529H9.96414V7.99154C9.96414 7.21342 10.2184 6.52342 10.9463 6.52342H12.1159V4.88879C11.9104 4.86104 11.4758 4.80029 10.6545 4.80029C8.93964 4.80029 7.93426 5.70592 7.93426 7.76917V9.01529H6.17139V10.8884H7.93426V16.0368C8.28339 16.0893 8.63701 16.1249 9.00001 16.1249C9.32814 16.1249 9.64839 16.0949 9.96451 16.0522V10.8884Z" fill="white"/>
</g>
</g>
</svg>
